
<svg width="617" height="419" xmlns="http://www.w3.org/2000/svg" xmlns:xlink="http://www.w3.org/1999/xlink">
 <defs>
  <linearGradient y2="0.50001" x2="0.99992" y1="0.50001" x1="-0.00009" data-name="未命名的渐变 11" id="_未命名的渐变_11">
   <stop stop-color="#73fff1" offset="0"/>
   <stop stop-color="#5cefff" offset="1"/>
  </linearGradient>
  <linearGradient xlink:href="#_未命名的渐变_11" y2="292.99" x2="584.05" y1="292.99" x1="549.98" data-name="未命名的渐变 11" id="_未命名的渐变_11-2"/>
  <linearGradient xlink:href="#_未命名的渐变_11" y2="212" x2="585" y1="212" x1="553" data-name="未命名的渐变 11" id="_未命名的渐变_11-3"/>
  <linearGradient xlink:href="#_未命名的渐变_11" y2="260.3" x2="698.34" y1="260.3" x1="609.82" data-name="未命名的渐变 11" id="_未命名的渐变_11-4"/>
  <linearGradient xlink:href="#_未命名的渐变_11" y2="282.24" x2="784.94" y1="282.24" x1="702.75" data-name="未命名的渐变 11" id="_未命名的渐变_11-5"/>
  <linearGradient y2="0.5" x2="1" y1="0.5" x1="0" data-name="未命名的渐变 240" id="_未命名的渐变_240">
   <stop stop-color="#eadeff" offset="0"/>
   <stop stop-color="#e0efff" offset="0.28"/>
   <stop stop-color="#d9ecff" offset="0.43"/>
   <stop stop-color="#aedbff" offset="0.59"/>
   <stop stop-color="#00d7ff" offset="1"/>
  </linearGradient>
  <linearGradient y2="0.50003" x2="1.00001" y1="0.50003" x1="0" data-name="未命名的渐变 9" id="_未命名的渐变_9">
   <stop stop-color="#2ebbff" offset="0"/>
   <stop stop-color="#006bff" offset="1"/>
  </linearGradient>
  <linearGradient xlink:href="#_未命名的渐变_9" y2="467.72" x2="842.05" y1="467.72" x1="761.74" data-name="未命名的渐变 9" id="_未命名的渐变_9-2"/>
  <linearGradient xlink:href="#_未命名的渐变_9" y2="394" x2="977.04" y1="394" x1="951.96" data-name="未命名的渐变 9" id="_未命名的渐变_9-3"/>
  <linearGradient xlink:href="#_未命名的渐变_9" y2="456.86" x2="977.56" y1="456.86" x1="952.19" data-name="未命名的渐变 9" id="_未命名的渐变_9-4"/>
  <linearGradient xlink:href="#_未命名的渐变_9" y2="437.15" x2="934.09" y1="437.15" x1="848.96" data-name="未命名的渐变 9" id="_未命名的渐变_9-5"/>
  <linearGradient y2="0.5" x2="0.99994" y1="0.5" x1="0" data-name="未命名的渐变 4" id="_未命名的渐变_4">
   <stop stop-color="#6445ff" offset="0"/>
   <stop stop-color="#5c86ff" offset="1"/>
  </linearGradient>
  <linearGradient xlink:href="#_未命名的渐变_4" y2="464.45" x2="466.06" y1="464.45" x1="445.81" data-name="未命名的渐变 4" id="_未命名的渐变_4-2"/>
  <linearGradient y2="-0.23832" x2="1.47603" y1="0.46345" x1="0.17906" data-name="未命名的渐变 72" id="_未命名的渐变_72">
   <stop stop-color="#c4aeff" offset="0"/>
   <stop stop-color="#ce9fff" offset="0.43"/>
   <stop stop-color="#af8eff" offset="0.55"/>
   <stop stop-color="#7d74ff" offset="0.72"/>
   <stop stop-color="#6333ff" offset="0.9"/>
  </linearGradient>
  <linearGradient y2="0.47289" x2="0.99937" y1="0.52818" x1="0.02548" data-name="未命名的渐变 58" id="_未命名的渐变_58">
   <stop stop-color="#b1ccff" offset="0"/>
   <stop stop-color="#b8c0ff" offset="0.34"/>
   <stop stop-color="#cba2ff" offset="0.94"/>
   <stop stop-color="#ce9fff" offset="1"/>
  </linearGradient>
  <linearGradient y2="0.50005" x2="1" y1="0.50005" x1="0.00045" data-name="未命名的渐变 3" id="_未命名的渐变_3">
   <stop stop-color="#5c86ff" offset="0"/>
   <stop stop-color="#64a2ff" offset="1"/>
  </linearGradient>
  <linearGradient xlink:href="#_未命名的渐变_3" y2="475.89" x2="477.01" y1="475.89" x1="470.95" data-name="未命名的渐变 3" id="_未命名的渐变_3-2"/>
  <linearGradient y2="0.4675" x2="1.0805" y1="0.53756" x1="0.11473" data-name="未命名的渐变 65" id="_未命名的渐变_65">
   <stop stop-color="#64a2ff" offset="0.11"/>
   <stop stop-color="#62a6ff" offset="0.28"/>
   <stop stop-color="#5cb5ff" offset="1"/>
  </linearGradient>
  <linearGradient y2="0.61626" x2="1.13145" y1="0.41032" x1="0.09443" data-name="未命名的渐变 66" id="_未命名的渐变_66">
   <stop stop-color="#5cb5ff" offset="0"/>
   <stop stop-color="#74e0ff" offset="1"/>
  </linearGradient>
  <linearGradient y2="0.48885" x2="1.08173" y1="0.51016" x1="0.08139" data-name="未命名的渐变 68" id="_未命名的渐变_68">
   <stop stop-color="#9cd1ff" offset="0"/>
   <stop stop-color="#bae0ff" offset="1"/>
  </linearGradient>
  <linearGradient y2="0.50005" x2="1.00016" y1="0.50005" x1="0.00009" data-name="未命名的渐变 71" id="_未命名的渐变_71">
   <stop stop-color="#a6d3ff" offset="0"/>
   <stop stop-color="#b1ccff" offset="0.7"/>
  </linearGradient>
  <linearGradient xlink:href="#_未命名的渐变_58" y2="466.98" x2="643.63" y1="473.79" x1="605.79" data-name="未命名的渐变 58" id="_未命名的渐变_58-2"/>
  <linearGradient xlink:href="#_未命名的渐变_3" y2="397.6" x2="514.17" y1="397.6" x1="479.91" data-name="未命名的渐变 3" id="_未命名的渐变_3-3"/>
  <linearGradient y2="0.4999" x2="0.99997" y1="0.4999" x1="-0.00009" data-name="未命名的渐变 5" id="_未命名的渐变_5">
   <stop stop-color="#64a2ff" offset="0"/>
   <stop stop-color="#5cc9ff" offset="1"/>
  </linearGradient>
  <linearGradient y2="0.50013" x2="0.99983" y1="0.50013" x1="0.00007" data-name="未命名的渐变 69" id="_未命名的渐变_69">
   <stop stop-color="#84c9ff" offset="0"/>
   <stop stop-color="#b1ccff" offset="0.42"/>
  </linearGradient>
  <linearGradient y2="0.36502" x2="1.03701" y1="0.61527" x1="0.09096" data-name="未命名的渐变 67" id="_未命名的渐变_67">
   <stop stop-color="#74e0ff" offset="0"/>
   <stop stop-color="#8dd6ff" offset="0.56"/>
   <stop stop-color="#9cd1ff" offset="1"/>
  </linearGradient>
  <linearGradient y2="0.5" x2="1" y1="0.5" x1="0" data-name="未命名的渐变 6" id="_未命名的渐变_6">
   <stop stop-color="#64a2ff" offset="0"/>
   <stop stop-color="#5cbfff" offset="1"/>
  </linearGradient>
  <linearGradient y2="0.5" x2="1" y1="0.5" x1="0" data-name="未命名的渐变 7" id="_未命名的渐变_7">
   <stop stop-color="#64ccff" offset="0"/>
   <stop stop-color="#84c9ff" offset="1"/>
  </linearGradient>
  <linearGradient xlink:href="#_未命名的渐变_7" y2="383.5" x2="552" y1="383.5" x1="546.98" data-name="未命名的渐变 7" id="_未命名的渐变_7-2"/>
  <linearGradient xlink:href="#_未命名的渐变_7" y2="404.39" x2="561.98" y1="404.39" data-name="未命名的渐变 7" id="_未命名的渐变_7-3"/>
  <linearGradient y2="0.5" x2="1" y1="0.5" x1="0" data-name="未命名的渐变 8" id="_未命名的渐变_8">
   <stop stop-color="#84c9ff" offset="0.01"/>
   <stop stop-color="#b1ccff" offset="1"/>
  </linearGradient>
  <linearGradient y2="0.5" x2="4.66625" y1="0.5" x1="4.61625" data-name="未命名的渐变 55" id="_未命名的渐变_55">
   <stop stop-color="#b1c9ff" offset="0"/>
   <stop stop-color="#b1ccff" offset="0.42"/>
  </linearGradient>
 </defs>
 <g>
  <title>Layer 1</title>
  <g data-name="图层 3" id="_图层_3">
   <path id="svg_1" fill="#9cf" stroke-width="0px" d="m74.07715,375.0022c11.04,8.56 30.35,0.82 33,0c14.37,-4.43 15.38,-15.33 26,-15c10.44,0.33 13.16,10.98 24,10c6.48,-0.59 7.04,-4.53 16,-6c8,-1.31 8.66,1.66 17,1c12.76,-1.01 15.73,-8.33 24,-6c8.42,4.47 11.58,6.51 22,5c0,0 11.3,-1.75 32,-10c1.42,-9.07 4.72,6.12 11.99,12c10.1,9.09 19.95,-0.4 31,8c10.86,8.26 13.5,26.66 13,31c-1.65,4.39 6.37,10.16 6,10c-4.41,-0.77 -20.72,-10.82 -25,-11c-6.8,-1.26 -15.53,-2.26 -24,-5c-17.1,-5.24 -15.17,-10.82 -34,-10c-7.53,0.04 -6.69,-0.47 -12,1c-2.54,-0.23 -9.74,0.73 -13,-1c-18.29,-11.87 -9.94,11.78 -36,3c-9.47,1.86 -14.72,0.65 -18.02,-1.12c-2.21,-1.19 -4.61,-5.33 -6.74,-4.61c-0.57,0.19 -0.74,0.58 -2.24,1.74c-1.2,0.93 -2.27,1.58 -3,2c-0.91,0.36 -1.91,0.7 -3,1c-2.93,0.8 -5.59,1.02 -7.75,1.02c-0.74,0 -1.87,-0.01 -3.25,-0.02c-3.97,0 -3.61,0.03 -4,0c-2.87,-0.21 -3.75,-0.93 -7,-1c-0.42,0 -0.77,0 -1,0l-6,0c-3,0.22 -5.39,0.65 -7,1c-1.72,0.37 -3.36,0.82 -10,3c-3.07,1.01 -4.59,1.59 -6,2c-1.81,0.53 -5.13,1.49 -9,2c-5.07,0.67 -9,0.3 -12,0c-6.54,-0.65 -11.56,-2.18 -14,-3c-4.6,-1.55 -26.12,-13.37 -20,-10c0,0 0,0 0,0c-0.03,-0.02 -20.88,-13.37 -28,-32c-1.09,-2.85 -2,-6 -2,-6c-0.52,-1.8 -1.44,-5.03 -2,-9c-0.44,-3.12 -1.34,-9.53 0,-10c1.69,-0.59 6.23,8.51 7.27,10.48c5.15,9.76 18.12,22.54 52.73,35.52l0.01,-0.01z" class="cls-32"/>
   <path id="svg_2" fill="#9cf" stroke-width="0px" d="m260.07715,284.0022c-13.63,7.43 -2.93,57.29 2,57c1.82,-0.11 1.13,-6.97 8,-16c3,-3.94 3.81,-3.37 5,-6c0.88,-3.8 2.06,-11.66 -2,-19c-0.61,-1.11 -1.29,-2.11 -2,-3c-0.31,-0.36 -0.8,-1.04 -1,-2c-0.06,-0.32 -0.19,-0.91 0,-1c0.26,-0.13 0.82,0.87 2,2c0.84,0.81 1.71,1.61 3,2c1.06,0.32 1.94,0.17 3,0c1.38,-0.23 2.37,-0.69 3,-1c1.31,-0.64 2.25,-1.09 3,-2c1.84,-2.22 1.14,-5.41 1,-6c-0.33,-1.36 -0.69,-1.29 -2,-4c-0.87,-1.8 -0.57,-1.55 -2,-5c-0.49,-1.19 -1,-2.79 -2,-6c-0.12,-0.39 -0.37,-1.22 0,-2c0,0 0.29,-0.6 1,-1c1.98,-1.11 11.6,0.55 15,1c2.66,0.35 13.92,1.61 15.83,2.95c0.42,0.3 0.8,0.64 1.17,1.05c2.43,2.73 0.93,4.31 3,9c3.83,8.69 13.16,12.57 19,15c5.09,2.12 8.54,2.5 13,3c6.22,0.69 7.53,-0.22 8,-1c0.74,-1.23 -0.27,-2.7 -1,-5c-1.53,-4.78 -0.3,-8.09 0,-12c0.51,-6.64 -1.77,-13.74 -4,-17c-9.26,-13.54 -41.29,4.77 -71,-2c-1.28,-0.29 -9.89,-2.3 -12,1c-1.87,2.94 2.99,7.55 1,12c-1.49,3.33 -5.5,3.63 -8,5z" class="cls-32"/>
   <path id="svg_3" fill="#9cf" stroke-width="0px" d="m310.07715,118.0022c-22.42,19.49 74.7,203.11 32,245c-9.08,8.91 -26.9,13.94 -28,28c-0.65,8.33 4.78,18.3 13,23c13.88,7.94 28.83,2.05 33,-1c2.68,-1.96 4,-4 4,-4c1.44,-2.22 1.56,-3.91 3,-8c0.76,-2.17 1.5,-3.9 2,-5c0.43,-1.13 0.95,-2.86 1,-5c0.04,-1.88 -0.32,-2.29 -0.25,-4.13c0.04,-1.01 0.22,-5.22 2.25,-5.87c0.27,-0.09 1.3,-0.35 3,1c-0.17,-0.41 -0.33,-0.87 -0.21,-0.95c0.24,-0.16 1.16,1.42 2.21,1.95c2.87,1.44 7.56,-0.07 8,-2c-10.79,-5.85 -14.4,-6.84 -15,-6c-0.79,1.11 3.49,5.56 3,6c-0.37,0.33 -3.05,-1.93 -3,-2c0.05,-0.07 3.08,1.97 4,3c0.08,0.09 0.44,0.51 1,1c0.23,0.2 0.43,0.36 0.55,0.46c0.1,0.12 0.26,0.31 0.45,0.54c2.9,3.62 4.2,7.01 4.62,8.05c0.92,2.28 2.67,5.77 6.38,10.95c15.05,16.54 34.83,19.18 54,9c16.33,3.81 7.85,10.54 33,5c25.9,-4.5 50.39,1.98 49,-25c-1.26,-10.66 -5.86,-19.02 0,-10c8.68,14.17 21.69,39.51 43,27c6.44,-4.99 5.9,-9.29 8,-16c1.22,-1.48 4.53,-4.38 6,-4c0.01,0.08 0.16,1 -0.41,1.5c-0.6,0.53 -1.8,0.43 -2.59,-0.5c2.97,10.52 12.31,17.02 21,16c7.93,-0.94 13.74,-10.13 14.27,-11.06c0.54,-0.96 0.98,-1.97 0.98,-1.97s0.41,-0.95 0.75,-1.97c1.19,-3.64 1.46,-7.4 1.46,-7.4c0.88,-11.86 0.98,-15.27 0.98,-15.27c0.35,-11.02 0.5,-9.78 0.67,-17.66c0.19,-8.34 -0.04,-7.03 0.13,-13.62c0,0 0.55,-21.79 -3.25,-26.05c-0.48,-0.54 -1,-1 -1,-1c-1.02,-0.91 -1.79,-1.28 -3,-2c0,0 -1,-0.67 -3,-2c-1,-0.67 -2.08,-1.22 -3,-2c-1.25,-1.06 -1.85,-1.94 -3,-2c-0.39,-0.02 -0.52,0.07 -1,0c-1.2,-0.18 -1.99,-1.02 -2,-1c-0.02,0.03 0.5,0.41 3,2c0.1,-0.62 1.27,-2.67 2,-3c5.54,-4.98 5.58,-5.38 8,-10c6.12,-15.03 -2.92,-19.21 -14,-26c-1.23,-1.16 -1.87,-0.9 -3,-1c-0.59,-2.25 -2.17,-3.18 -3,-6c-1.01,-2.71 -2.29,-10.67 -2,-12c0.57,-5.41 2.39,-8.84 4,-11c2.1,-2.82 3.85,-3.49 6,-7c1.22,-2 2.84,-4.65 3,-8c0.25,-5.38 -3.39,-9.63 -8,-15c-2.47,-2.87 -5.06,-5.17 -6,-6c-2.42,-2.13 -4.22,-3.42 -5,-4c-5.14,-3.8 -8.31,-10.94 -9.7,-14.15c-5.32,-12.26 -7.9,-23.86 -8.3,-32.85c-1.17,-26.5 -38.54,-51.77 -63,-35c-7.04,5.65 -2.81,10.14 -11,18c-10.42,10 -22.57,7.8 -34,13c-5.71,3.43 -10.18,0.22 -16,-2c-9.95,-3.09 -18.5,-13.48 -24,-22c-1.52,-1.57 -3.98,-3.73 -7.79,-5.64c-30.14,-4.8 -47.97,-7.45 -51.21,-7.36c-0.78,0.02 -4.27,0.18 -7.57,-1.74c-7.85,-9.54 -30.21,6.06 -40.43,13.74l0.01,0z" class="cls-32"/>
   <path id="svg_4" fill="#9cf" stroke-width="0px" d="m294.07715,64.0022c-4.66,0.36 -8.11,1.64 -10.79,3.57c-13.35,9.62 -7.67,24.47 -21.35,37.56c-3.88,3.71 -4.86,2.87 -33.86,12.87c-0.06,0.02 -2.46,0.85 -4,0c-0.23,-0.13 -0.75,-0.41 -1,-1c-0.23,-0.54 -0.15,-1.16 -0.12,-1.33c0.02,-0.16 0.09,-0.51 0.12,-0.67l0,0c1.24,-1.71 8.11,-11.55 4.97,-21.02c-3.76,-11.34 -20.93,-19.28 -39.97,-12.98c-12.11,2.27 -15.97,0.27 -17.33,-1.85c-1.94,-3.02 0.84,-6.86 5.33,-19.16c3.86,-10.58 5.89,-16.13 6,-22c0.1,-5.49 -1.43,-13.73 -10,-24c-23.21,-14.8 -47,-13.43 -56,-2c-1.46,1.85 -5.64,7.92 -4,20c-3.3,4.02 -9.31,1.14 -20,4c-10.63,1.96 -20.69,9.46 -13,23c5.63,9.91 94.53,145.36 192.09,115.49c50.17,-15.36 72.52,-65.2 72.91,-66.49c0.03,-0.1 0.51,-1.68 0,-2c-0.15,-0.1 -0.3,-0.03 -1,0l-3,0c-1.55,0 -3.44,-0.77 -4,-1c-0.5,-0.2 -1.8,-0.75 -5,-3c-1.04,-0.73 -2.42,-1.73 -4,-3c-3.1,-0.72 -4.4,-1.96 -5,-3c-0.3,-0.52 -0.38,-0.9 -1,-2c-1.21,-2.14 -1.61,-1.92 -2,-3c-0.34,-0.93 -0.04,-1.09 0,-5c0,-0.35 0,-0.06 0,-2c0,-3.6 0.02,-3.67 0,-4c-0.12,-1.85 -0.9,-3.16 -2,-5c-2.63,-4.41 -6.25,-6.57 -7,-7c-1.67,-0.96 -2.99,-1.38 -5,-2c-2.56,-0.79 -6.28,-1.69 -11,-2l0,0.01z" class="cls-32"/>
  </g>
  <g data-name="背景" id="_背景">
   <path id="svg_5" fill="#fff" stroke-width="0px" d="m199.07715,72.0022c-16.42,-3.08 -26.21,8.1 -31,4c-7.63,-6.54 18.33,-33.97 9,-55c-6.88,-15.51 -30.12,-21.13 -45,-21c-3.33,0.03 -16.49,0.44 -31,9c-30.76,18.15 -37.62,55.27 -56,109c-20.03,58.55 -43.71,77.3 -45,119c-0.4,13.04 0.88,31.37 1,33c2.91,40.64 9.7,47.97 12,64c0.27,1.85 0.98,7.34 5,12c0.83,0.96 1.59,1.64 2.01,2c0.47,0.48 1.15,1.18 1.99,2c10.84,10.63 27.33,20.18 27.33,20.18c17.89,10.12 26.84,15.18 35.66,13.82c3.19,-0.49 6.88,-1.68 16.62,-3.27c3.46,-0.56 6.46,-0.79 12.39,-1.73c3.95,-0.63 7.36,-0.89 10,-1c3.64,-0.15 6.36,-0.03 7,0c4.66,0.22 8.01,0.84 9,1c3.81,0.61 10.14,0.32 21,-4c3.96,0.13 4.67,2.49 9,4c4.59,1.6 5.73,-0.37 15,0c16.7,2.72 12.4,-0.95 25,-4c5.48,-0.56 5.78,1.97 14,3c9.86,2.45 36.35,-8.51 48,1c6.44,5.27 9.1,4.24 16,6c7.05,3.78 15.85,4.35 23,8c18.2,11.17 34.14,20.96 51,2c5.59,-6.98 3.83,-12.43 8,-14c7.13,-2.81 31.59,30.21 58,23c15.36,-6.57 13.31,-4.51 28,1c5.68,1.04 23.32,-3.84 33,-4c12.6,-0.87 15.51,0.92 21,-2c11.5,-6.32 8.35,-12.82 9,-21c6.52,3 17.82,31.94 43,18c6.28,-4.14 7.41,-10.27 11,-10c3.81,0.29 3.43,7.28 9,11c7.22,4.82 20.84,1.79 26,-6c1.88,-2.84 1.95,-5.28 2,-16c0.06,-12.86 2.5,-34.29 1,-57c-0.27,-4.14 -0.62,-6.12 -2,-8c-1.81,-2.47 -4.68,-3.81 -7.73,-8.57c-0.11,-0.18 -0.21,-0.33 -0.27,-0.43c0,-0.08 -0.02,-0.19 -0.02,-0.33c0.03,-1.6 1.77,-2.75 2.36,-3.17c1.19,-0.85 2.8,-2.4 4.66,-5.5c10.77,-33.99 -34.41,-21.61 -20,-59c3.12,-6.89 6.55,-6.37 8,-12c2.32,-9.04 -4.5,-18.26 -8,-23c-5.99,-8.1 -8.37,-6.45 -17,-17c-2.93,-3.58 -6.84,-8.36 -9.5,-15.5c-2.32,-6.24 -2.48,-11.05 -2.5,-12.5c0,-0.42 0,-0.77 0,-1c0.13,-4.73 -0.28,-14.34 -6,-24c-8.66,-14.64 -25.27,-22.26 -40,-22c-22.75,0.41 -39.01,19.59 -41,22c-4.52,5.48 -5.53,9.19 -11,12c-8.17,4.19 -19.82,3.24 -29,-1c-1.04,-0.48 -1.78,-0.88 -2,-1c-13.03,-7.1 -12.62,-18.04 -23,-25c-0.78,-0.52 -2.86,-1.85 -9.5,-3.93c-18.42,-5.77 -40.67,-7.51 -55.5,-8.07c-1.93,0.07 -4.76,-0.05 -8,-1c-3.67,-1.08 -6.36,-2.77 -8,-4c-5.34,-3.78 -6.82,-2.84 -9,-5c-3.59,-3.56 0.14,-10.39 -3,-17c-2.84,-5.97 -10.15,-7.96 -14,-9c-2.47,-0.67 -11.2,-2.68 -20,2c-1.88,1 -6.08,3.3 -9,8c-2.37,3.82 -1.56,5.46 -4,14c-2.08,7.28 -3.18,10.97 -6,13c-1.17,0.85 -5.1,3.27 -13,1c-3.07,-0.18 -7.45,0 -12,2c-8.86,3.88 -12,11.82 -14,11c-2.79,-1.15 5.52,-15.64 0,-28c-5.58,-12.5 -22.22,-15.85 -23,-16z" class="cls-18"/>
   <g data-name="主体" id="_主体">
    <path fill="url(#_未命名的渐变_11)" stroke-width="0px" d="m143.07715,31.0022c0.03,-1.1 -0.07,-2.97 -1,-5c-0.89,-1.93 -2.11,-3.1 -2.75,-3.7c-0.4,-0.38 -1.57,-1.42 -3.37,-2.29c-1.11,-0.53 -2.12,-0.83 -2.88,-1.01c-0.48,0 -1.16,0 -1.98,0.04c-1.4,0.09 -4.59,0.32 -7.8,1.81c-3.86,1.79 -6.04,4.59 -7.21,6.15c-1.03,1.36 -0.93,1.77 -4,8c-1.08,2.19 -1.79,3.57 -2,4c-5.9,11.79 -12,35 -12,35c-7.65,29.08 -7.7,25.76 -12,44c-2.8,11.87 -4.71,21.49 -6,28c-0.61,3.07 -2.21,11.25 -4,22c0,0 -1.57,9.87 -3,30c-0.1,1.34 -0.46,7.05 1,14c0.85,4.05 3,8 3,8l0,0c2.28,2.98 4.52,4.83 5.99,5.89c11.06,8 23.32,4.35 57.01,4.11c3.06,-0.02 5.53,-0.01 7,0c1.02,-0.28 2.51,-0.84 4,-2c0.52,-0.41 1.27,-1.06 2,-2c0.45,-0.58 1.59,-1.91 2,-4c0.21,-1.08 0.43,-2.87 0,-5c-0.36,-1.17 -0.7,-2.18 -1,-3c-0.3,-0.83 -0.53,-1.39 -1,-2c-0.36,-0.46 -0.73,-0.79 -1,-1c-0.24,-0.23 -0.76,-0.76 -1,-1c-1.73,-1.73 -1.87,-1.87 -2,-2c-1.25,-1.2 -2.82,-1.65 -4,-2c-5.84,-1.71 -23,-2 -23,-2c-4.12,-0.07 -10.14,-0.62 -17.53,-2.99c1.73,-17.19 5.56,-49.39 13.31,-81.46c4.95,-20.51 4.35,-18.09 8.22,-30.55c5.85,-18.81 8.77,-28.22 11,-34c0,0 3.24,-8.41 4.63,-15.69c0.44,-2.32 0.84,-4.8 0.84,-4.8c0.18,-1.17 0.35,-2.34 0.53,-3.5l-0.01,-0.01z" class="cls-3" id="lite-l"/>
    <path fill="url(#_未命名的渐变_11-2)" stroke-width="0px" d="m196.07715,130.0022c4.11,0.31 6.91,2.96 8,4c6.83,6.48 6.93,17.68 7,26c0,0.06 0,0.03 0,7c0,14.32 0,21.48 0,22c0.04,13.27 0.66,35.34 -4,42c-1.29,1.84 -3,3 -3,3c-2.97,2.01 -6.17,1.99 -8,2c-1.45,0 -7.74,-0.12 -13,-5c-6.34,-5.87 -6.06,-13.87 -6,-15c0,-0.07 0,-9.93 0,-10c0,-38.04 0,-37.85 0,-38c-0.02,-1.29 -0.01,-3.53 0,-8c0.03,-9.9 0.15,-12.06 1,-15c1.28,-4.42 3.15,-6.95 4,-8c1.1,-1.36 2.19,-2.34 3,-3c0.7,-0.58 1.7,-1.32 3,-2c0.98,-0.52 4.28,-2.28 8,-2z" class="cls-15" id="lite-i-1"/>
    <path fill="url(#_未命名的渐变_11-3)" stroke-width="0px" d="m193.85715,86.0722c8.85,-0.96 18.71,7.52 18.2,17.09c-0.5,9.28 -10.62,16.63 -19.33,14.46c-6.93,-1.73 -13.7,-9.65 -12.51,-18.4c1.06,-7.79 7.93,-12.52 13.65,-13.14l-0.01,-0.01z" class="cls-30" id="lite-i-1-1"/>
    <path fill="url(#_未命名的渐变_11-4)" stroke-width="0px" d="m270.07715,109.0022c-5.46,4.9 -13.26,-2.45 -24,3c-1.76,0.89 -7.94,4.02 -9,10c-0.72,4.08 0.94,7.61 1.38,8.43c0.48,0.92 2.17,4.11 5.62,5.57c1.09,0.46 1.2,0.26 6,1c5.06,0.78 4.17,0.82 6,1c2.02,0.19 4,0.68 6,1c0.54,0.09 1.55,0.25 2,1c0.42,0.71 0.13,1.6 0,2c-0.61,1.93 -0.44,4.05 -1,6c-1.01,3.51 -0.87,8.39 -1,13c-0.29,10.62 -1.82,12.94 -2,20c-0.11,4.19 -0.42,18.97 9,31c1.49,1.9 10.06,12.84 21,12c1.28,-0.1 5.89,-0.45 9,-4c4.48,-5.11 2.13,-12.61 2,-13c-1.5,-4.54 -4.19,-4.73 -8,-10c-4,-5.53 -5.15,-11 -6,-15c-1.67,-7.89 -0.83,-14.05 0,-20c1.22,-8.76 3.02,-10.14 4,-16c0.13,-0.81 0.46,-2.94 2,-5c0,0 0.85,-1.13 2,-2c2.17,-1.64 8.68,-0.49 12.72,-0.42c3.25,0.06 5.06,0.09 7.28,-0.58c1.17,-0.35 8.31,-2.66 10,-9c1.37,-5.14 -1.51,-11.55 -6,-14c-3.8,-2.07 -12.48,-2.26 -15,-3c-1.03,-0.3 -1.9,-0.93 -2,-1c-0.47,-0.34 -0.82,-0.6 -1,-1c-0.56,-1.23 0.89,-2.87 1,-3c0.54,-0.96 1.27,-2.32 2,-4c1.51,-3.46 2.99,-6.85 3,-11c0,-1.91 0.01,-6.19 -3,-10c-3.3,-4.17 -8.02,-4.99 -9.42,-5.24c-0.92,-0.16 -6.37,-1 -11.58,2.24c-1.61,1 -4.15,3 -7,9c-5.75,12.08 -1.75,17.18 -6,21z" class="cls-4" id="lite-t"/>
    <path fill="url(#_未命名的渐变_11-5)" stroke-width="0px" d="m362.07715,166.0022c-0.58,0.39 -5.22,3.65 -5,8c0.19,3.92 4.21,6.49 5,7c5.42,3.48 9.31,0.51 25,-1c10.15,-0.98 16.08,-0.47 21,-5c1.89,-1.74 2.72,-3.39 3,-4c2.32,-5.01 -0.29,-10.09 -1,-14c-1.83,-10.01 -12.11,-17.03 -15,-19c-1.39,-0.95 -8.43,-5.63 -19,-7c-4.47,-0.58 -13.46,-1.75 -23,3c-8.94,4.45 -13.31,11.6 -16,16c-5.84,9.56 -6.79,18.48 -7,21c-0.4,4.87 -1.09,14.86 5,25c4.96,8.26 11.87,12.39 15,14c8.24,4.25 15.6,4.12 23,4c9.99,-0.17 16.58,-2.61 23,-5c2,-0.74 5.17,-2.02 8,-5c1.68,-1.77 4.08,-4.29 4,-8c-0.07,-3.36 -2.16,-6.53 -5,-8c-2.95,-1.53 -5.9,-0.81 -9,0c-6.07,1.58 -6.81,4.01 -12,6c-6.49,2.49 -12.52,1.46 -15,1c-3.77,-0.69 -9.81,-1.81 -14,-7c-3.24,-4.01 -3.72,-8.41 -4,-11c-0.26,-2.43 -1.1,-10.07 4,-17c0.43,-0.59 7.21,-9.48 18,-9c1.43,0.06 9.65,0.59 14,7c1.16,1.71 2.94,4.33 2,6c-2.22,3.93 -15.76,-4.29 -25,2z" class="cls-7" id="lite-e"/>
    <path fill="url(#_未命名的渐变_240)" stroke-width="0px" d="m502.07715,162.0022l13.33,22l9.67,-15l-8,-20l4,-6l6,2l9,13l7,-11l9,1l3,7l-11,13l17,2l4,8l-5,4l-22,-4l-13.5,16.8l27.5,5.2l11,-14l7,1l3,7l-9,11l19,3l4,7l-4,5l-18,-3l7,14l-4,4l-8,-1l-10,-20l-40,-8l-2,-2l-20,-37l-23,-4l-3,-7l4,-5l16,3l-9,-15l4,-6l7,1l9,16l9,-10l7,2l3,6l-10,14z" class="cls-21" id="logo-snow"/>
    <path fill="url(#_未命名的渐变_9)" stroke-width="0px" d="m344.07715,316.0022c-18.61,-18.39 -62.05,-50.01 -50,-71c2.85,-4.5 7.34,-9.45 17,-7c15.19,5.99 14.64,39.18 45,55c8.67,-18.92 10.28,-33.18 10,-43c-0.12,-4.37 -0.74,-12.15 4,-16c0.82,-0.55 5.22,-3.4 10.85,-2.15c3.86,0.85 6.25,3.17 7.15,4.15c0.5,0.6 1.28,1.58 2.09,2.87c8.99,14.33 0.03,32.06 -11.49,69.45c-4.1,13.3 -6.65,21.58 -9.6,33.68c-5.81,23.86 -8.17,40.38 -20,51c-11.03,9.91 -22.32,0.03 -23,-9c-2.89,-15.02 23.13,-56.98 18,-68z" class="cls-27" id="yuki-y"/>
    <path fill="url(#_未命名的渐变_9-2)" stroke-width="0px" d="m403.07715,323.0022c-0.54,-0.11 -5.36,-1.02 -9,2c-2.31,1.92 -3.04,4.55 -4,8c-0.74,2.66 -0.91,4.8 -1,6c-0.59,8.25 0,15 0,15c1.18,13.55 1.77,20.33 3,23c1.04,2.27 4.07,8.71 11,13c6.21,3.85 12.31,3.91 21,4c0.81,0 16.83,0.09 21,-4c0.22,-0.21 1.2,-1.26 2,-1c0.93,0.3 0.69,2.05 2,4c0,0 0.63,0.93 2,2c3.54,2.75 12.53,3.41 16,-1c0.62,-0.79 1.75,-2.64 2,-5c0.07,-0.68 0.05,-1.22 0.02,-1.76c-0.13,-2.75 -0.88,-4.83 -1.02,-5.24c-1.31,-3.73 -3.37,-15.69 -4,-23c-0.58,-6.71 0.42,-5.3 0,-19c-0.11,-3.63 -0.12,-9.19 -3,-15c-1.36,-2.75 -2.63,-4.09 -4,-5c-2.95,-1.96 -6.82,-2.22 -10,-1c-0.8,0.31 -3.48,1.34 -5,4c-1.36,2.37 -1.11,4.83 -1,6c0.66,6.98 0.45,14.01 1,21c0.72,9.13 0.57,11.51 -1,14c-1.8,2.86 -4.42,4.2 -6,5c-7.58,3.86 -15,0.82 -17,0c-2.54,-1.04 -3.49,-2.11 -4,-3c-0.74,-1.29 -0.88,-2.78 -1,-4c-0.13,-1.35 -0.05,-2.34 0,-3l0,-16c-0.19,-7.44 -0.28,-11.16 -2,-14c-0.52,-0.85 -3.02,-4.98 -8,-6z" class="cls-22" id="yuki-u"/>
    <path fill="url(#_未命名的渐变_9-3)" stroke-width="0px" d="m591.07715,272.0022c-6.65,0.3 -12.55,6.12 -12,13c0.53,6.56 6.7,11.28 13,11c6.65,-0.3 12.55,-6.12 12,-13c-0.53,-6.56 -6.7,-11.28 -13,-11z" class="cls-2" id="yuki-i-1-1"/>
    <path fill="url(#_未命名的渐变_9-4)" stroke-width="0px" d="m591.07715,303.0022c-0.8,0.03 -3.41,0.23 -6,2c0,0 -1.73,1.18 -3,3c-3.44,4.92 -2.32,14.54 -2,25c0.14,4.66 0,9.33 0,14c0,11.92 0,17.88 0,18c-0.51,8.41 -1.54,11.05 0,16c0.77,2.5 1.84,5.92 5,8c3.21,2.11 6.76,1.77 8.36,1.62c0.77,-0.07 5.65,-0.54 8.64,-3.62c3.4,-3.49 2.66,-8.56 2,-17c-0.09,-1.11 -1.18,-15.43 -1,-28c0.1,-7.33 -0.76,-14.71 0,-22c0.11,-1.03 0.52,-4.77 -1,-9c-0.64,-1.78 -1.55,-4.19 -4,-6c-2.89,-2.13 -6.05,-2.04 -7,-2z" class="cls-24" id="yuki-i-1"/>
    <path fill="url(#_未命名的渐变_9-5)" stroke-width="0px" d="m545.07715,299.0022c-0.26,-0.11 -0.66,-0.27 -1.17,-0.44c0,0 -4.46,-1.53 -9.91,-1c-4.47,0.44 -18.59,11.34 -31.93,31.43c-0.35,-10.53 -0.23,-21.87 0.56,-33.9c0.37,-5.55 0.85,-10.92 1.44,-16.1c0.26,-1.2 0.52,-2.94 0.41,-5.03c-0.09,-1.81 -0.25,-4.96 -2.27,-8.04c-0.56,-0.85 -2.9,-4.42 -7.52,-5.51c-5.61,-1.33 -10.01,2.08 -10.62,2.58c-3.44,2.76 -4.45,6.67 -5,9c-3.6,15.32 -3,27 -3,27c0.42,8.15 1.67,32.57 1,50c-0.22,5.66 0.05,11.33 0,17c-0.05,6.02 -0.13,9.05 1,13c1.45,5.07 4.08,8.75 6,11c1.19,1.11 3.93,3.36 8,4c3.99,0.63 7.79,-0.51 9.84,-1.85c11.06,-7.21 1.65,-39.59 4.55,-40.56c0.39,-0.13 1.19,0.88 2.61,3.4c8.89,11.22 14.99,15.39 30,29c7.7,10.13 23.45,3.59 22,-8c-0.19,-16.59 -39.62,-33.08 -31.91,-39.47c1.89,-2.38 6,-8.21 6.91,-9.53c5.47,-7.8 10.83,-8.44 13,-15c1.34,-4.04 0.69,-6.57 0.43,-7.38c-1.01,-3.15 -3.39,-4.94 -4.43,-5.62l0.01,0.02z" class="cls-28" id="yuki-k"/>
    <path fill="url(#_未命名的渐变_4)" stroke-width="0px" d="m79.07715,274.0022c-1.75,-1 -2.61,-0.17 -10,1c-2.22,0.35 -7.11,1.06 -13,3c-1.36,0.45 -2.68,0.93 -3,2c-0.49,1.65 1.56,4.27 4,5c0.32,0.09 0.56,0.13 0.74,0.16c2.19,0.34 3.89,-0.56 5.26,-1.16c1.96,-0.87 3.64,-1.24 7,-2c0,0 4.44,-1 5,0c0.02,0.04 0.04,0.07 0.04,0.07c0.07,0.18 -0.02,0.5 -0.04,2.93c0,0.06 0,0.71 0,2c0,5.01 0.09,5.71 0,7c-0.2,2.74 -0.3,4.11 -1,5c-1.25,1.58 -3.23,1.52 -7,2c-5.62,0.72 -4.41,1.27 -10,2c-7.19,0.94 -9.49,0.07 -11,2c-1.32,1.68 -1.32,4.57 0,6c1.74,1.88 5.46,0.88 9,0c7.35,-1.82 19.55,-4.84 29,-6c4.81,-0.59 12,-1.09 13,-4c0.57,-1.65 0,-3 0,-3c-0.06,-0.14 -0.62,-1.43 -2,-2c-1.19,-0.49 -2.36,-0.18 -3,0c-6.78,1.91 -9.23,2.82 -10,2c-0.45,-0.48 -0.17,-1.39 0,-2c1.77,-6.29 1.22,-12.36 1,-14c-0.23,-1.67 -0.84,-6.18 -4,-8z" class="cls-19" id="lite-jp-1"/>
    <path fill="url(#_未命名的渐变_4-2)" stroke-width="0px" d="m75.07715,330.0022c-1.02,0.34 -1.72,1.18 -2,2c-0.31,0.93 -0.06,1.78 0,2c0.38,1.39 0.25,7.26 0,19c-0.12,5.74 -0.36,7.73 0,12c0.21,2.49 0.58,5.11 2,8c0.87,1.76 1.83,3.72 4,5c2.08,1.23 4.09,1.14 7,1c2.69,-0.13 6.51,-0.31 7,-2c0.37,-1.27 -1.18,-3.23 -3,-4c-2.78,-1.18 -4.84,0.97 -7,0c-2.17,-0.97 -2.69,-4.29 -3,-7c-1.07,-9.45 -0.9,-24.04 -1,-30c-0.02,-1.36 -0.12,-5.21 -2,-6c-0.58,-0.25 -1.37,-0.21 -2,0z" class="cls-34" id="liteecho-1"/>
    <path fill="url(#_未命名的渐变_72)" stroke-width="0px" d="m263.13715,280.9522c-2.11,0.2 -3.55,1.9 -3.93,2.35c-0.57,0.68 -0.91,1.34 -1.11,1.8c1.09,1.05 6.06,5.64 11.22,4.91c2.33,-0.33 5.1,-1.81 5.34,-2.63c0.03,-0.09 0.03,-0.17 0.03,-0.17c0,-0.29 -0.33,-0.71 -1.89,-1.83c-1.33,-0.96 -2.23,-1.61 -3.3,-2.18c-0.69,-0.37 -1.23,-0.6 -1.68,-0.79c-2.41,-1.04 -3.62,-1.55 -4.68,-1.45l0,-0.01z" class="cls-16" id="yuki-jp-4-1"/>
    <path fill="url(#_未命名的渐变_58)" stroke-width="0px" d="m248.07715,265.0022c0.37,-0.49 1.34,-1.8 3,-2c2.33,-0.28 3.93,1.89 4,2c0.33,0.46 0.44,0.81 1,3c0.59,2.3 0.88,3.45 1,4c0.33,1.56 0.71,3.58 1,6c0.65,5.37 0.61,6.78 1,10c0.79,6.47 1.28,10.5 3,15c0.07,0.18 1.23,3.21 1,7c-0.08,1.29 -0.29,2.25 -1,3c-1,1.07 -2.67,1.39 -4,1c-0.58,-0.17 -1.69,-0.65 -3,-3c-1.53,-2.75 -1.78,-5.26 -2,-7c-0.3,-2.39 -0.86,-5.79 -2,-10c-1,-6.33 -2,-12.67 -3,-19c-0.33,-1.67 -0.67,-3.33 -1,-5c-0.1,-0.53 -0.53,-2.95 1,-5z" class="cls-12" id="yuki-jp-4"/>
    <path fill="url(#_未命名的渐变_3)" stroke-width="0px" d="m101.07715,341.0022c-1.86,-0.04 -3.59,1.27 -4,3c-0.56,2.38 1.47,5.01 4,5c2.03,-0.01 4,-1.72 4,-4c0,-2.25 -1.92,-3.96 -4,-4z" class="cls-20" id="liteecho-i-1-1"/>
    <path fill="url(#_未命名的渐变_3-2)" stroke-width="0px" d="m102.07715,354.0022c-0.61,-0.3 -1.38,-0.31 -2,0c-0.14,0.07 -0.62,0.33 -1,1c-1.18,2.08 -1.01,7.51 -1,8c0.16,5.45 0,9 0,9c-0.08,1.78 -0.22,3.7 1,5c0.21,0.22 0.94,1 2,1c1.08,0 1.81,-0.8 2,-1c1.05,-1.14 1.02,-2.72 1,-4c-0.03,-2.33 0.04,-4.67 0,-7c-0.05,-3.31 0.17,-8.95 -1,-11c-0.12,-0.2 -0.41,-0.71 -1,-1z" class="cls-9" id="liteecho-i-1"/>
    <path fill="url(#_未命名的渐变_65)" stroke-width="0px" d="m119.55715,342.6422c-0.52,0.03 -1.3,0.07 -1.92,0.55c-0.25,0.19 -0.76,0.67 -1.1,2.68c-0.15,0.92 -0.29,2.26 -0.14,3.91c-1.17,0.01 -3.52,0.16 -5.32,1.22c-0.38,0.22 -0.77,0.51 -1,1c-0.39,0.85 -0.08,1.91 0.41,2.59c0.74,1.01 1.99,1.19 3.59,1.41c0.85,0.12 1.57,0.12 2.05,0.1c-0.06,0.76 -0.12,1.85 -0.14,3.16c-0.01,1.22 -0.03,2.48 0.14,4.12c0.15,1.49 0.3,2.92 0.96,4.62c0.39,1.03 0.78,1.67 1,2c0.25,0.39 0.74,1.08 1.48,1.76c1.12,1.05 2.67,2.5 4.52,2.24c1.2,-0.17 2.57,-1.06 2.76,-2.24c0.12,-0.76 -0.29,-1.46 -0.55,-1.92c-0.43,-0.76 -0.87,-0.99 -1.51,-1.65c-0.95,-0.97 -1.44,-1.93 -1.78,-2.61c-0.71,-1.41 -0.9,-2.61 -1.1,-3.85c-0.15,-0.97 -0.37,-2.35 -0.14,-4.12c0.09,-0.67 0.22,-1.22 0.32,-1.61c0.56,0 1.35,-0.04 2.29,-0.17c1.54,-0.21 2.32,-0.32 2.88,-0.82c0.8,-0.71 1.27,-2.03 0.83,-3.01c-0.13,-0.3 -0.38,-0.61 -1,-1c-1.52,-0.94 -3.22,-1.02 -4.36,-0.94c0.11,-0.49 0.27,-1.25 0.41,-2.2c0.49,-3.18 0.14,-3.81 -0.14,-4.12c-0.26,-0.3 -0.59,-0.43 -1.24,-0.69c-0.4,-0.16 -1.18,-0.47 -2.2,-0.41z" class="cls-8" id="liteecho-t"/>
    <path fill="url(#_未命名的渐变_66)" stroke-width="0px" d="m142.48715,359.4922c-1.24,0 -1.82,0.11 -2.17,0.53c-0.63,0.76 -0.29,2.24 0.31,3.15c1.51,2.31 5.53,2.25 7.8,1.77c1.4,-0.3 4.49,-0.94 5.98,-3.77c1.7,-3.21 -0.04,-6.62 -0.4,-7.27c-1.86,-3.4 -5.47,-4.29 -7.14,-4.7c-3.37,-0.83 -6.16,0.05 -7.27,0.4c-1.07,0.34 -2.81,0.91 -4.53,2.4c-3.45,2.98 -3.92,7.09 -4,8c-0.27,3.05 0.7,5.35 1,6c0.27,0.6 1.17,2.42 3,4c1.04,0.89 2.16,1.53 3,2c0.99,0.56 1.75,0.89 2,1c1.02,0.44 1.88,0.81 3,1c1.17,0.2 2.07,0.1 3,0c0.34,-0.04 1.85,-0.22 4,-1c3.3,-1.2 4.59,-2.54 5,-3c0.47,-0.53 0.68,-0.9 0.71,-1.34c0.06,-1.15 -1.21,-2.31 -2.48,-2.62c-0.51,-0.12 -0.94,-0.08 -1.23,-0.05c-2.01,0.26 -3.04,1.28 -4.31,1.86c-2.59,1.19 -5.84,0.41 -7.69,-0.86c-1.16,-0.8 -1.95,-1.93 -2,-2c-0.26,-0.38 -0.69,-1.07 -1,-2c-0.26,-0.77 -0.95,-2.86 0,-5c0.82,-1.85 2.41,-2.69 3,-3c2.34,-1.23 5.06,-1.05 7,0c0.69,0.37 1.64,0.9 2,2c0.29,0.87 0.26,2.23 -0.52,2.84c-1,0.8 -2.36,-0.34 -6.07,-0.36l0.01,0.02z" class="cls-25" id="liteecho-e"/>
    <path fill="url(#_未命名的渐变_68)" stroke-width="0px" d="m197.07715,346.0022c-1.16,0 -4.12,0.04 -7,2c-1.54,1.05 -2.49,2.26 -3,3c-1.62,2.38 -1.87,4.7 -2,6c-0.12,1.26 -0.36,4 1,7c2.14,4.72 6.61,6.52 8,7c1.04,0.36 4.93,1.64 9,0c0.94,-0.38 2.74,-1.13 4,-3c0.45,-0.66 1.99,-2.94 1,-5c-0.54,-1.12 -1.88,-2.25 -3,-2c-1.41,0.32 -1.04,2.48 -3,4c-1.92,1.48 -4.45,1.09 -5,1c-0.54,-0.08 -2.42,-0.41 -4,-2c-2.4,-2.42 -2.04,-5.66 -2,-6c0.07,-0.51 0.43,-3.37 3,-5c2.25,-1.43 5.33,-1.38 7,0c0.93,0.77 0.92,1.55 2,2c1.26,0.52 3.2,0.27 4,-1c0.72,-1.15 0.17,-2.56 0,-3c-0.15,-0.38 -0.69,-1.63 -3,-3c-0.98,-0.58 -3.45,-2.01 -7,-2z" class="cls-29" id="liteecho-c"/>
    <path fill="url(#_未命名的渐变_71)" stroke-width="0px" d="m217.07715,329.0022c-0.92,-0.49 -2.08,-0.44 -3,0c-1.8,0.87 -1.99,2.91 -2,3l0,9c0,4 0.04,8 0,12c-0.03,3 0.1,6 0,9c-0.1,3.04 -0.29,5.38 1,8c0.45,0.91 1.42,2.89 3,3c1.63,0.11 2.9,-1.85 3,-2c1.44,-2.28 0.03,-4.1 0,-9c-0.02,-2.85 0,-5.82 2,-8c0.37,-0.4 1.8,-1.97 4,-2c2.44,-0.04 3.91,1.89 4,2c0.92,1.22 1,2.52 1,3c-0.33,1.67 -0.67,3.33 -1,5c-0.41,1.12 -0.91,2.85 -1,5c-0.09,2.3 -0.16,3.99 1,5c1.28,1.11 3.61,1.02 5,0c1.65,-1.21 1.8,-3.61 2,-7c0.08,-1.27 0.04,-2.31 0,-3l0,-8c-0.02,-0.84 -0.16,-2.36 -1,-4c-0.51,-1 -1.73,-2.93 -4,-4c-3.65,-1.72 -7.65,-0.14 -8,0c-1.5,0.62 -2.24,1.36 -3,1c-0.71,-0.34 -0.94,-1.4 -1,-4c-0.12,-5.04 0.61,-6.66 0,-10c-0.56,-3.06 -1.54,-3.76 -2,-4z" class="cls-17" id="liteecho-h"/>
    <path fill="url(#_未命名的渐变_58-2)" stroke-width="0px" d="m252.07715,348.0022c-4.27,-0.18 -7.17,2.27 -8,3c-3.05,2.66 -3.79,6 -4,7c-0.18,0.88 -1.21,5.84 2,10c2.08,2.69 4.82,3.62 6,4c1.29,0.42 4.46,1.39 8,0c2.95,-1.16 4.51,-3.31 5,-4c1.43,-2.02 1.81,-3.97 2,-5c0.46,-2.51 0.1,-4.49 0,-5c-0.67,-3.35 -2.52,-5.47 -3,-6c-0.69,-0.76 -3.46,-3.8 -8,-4z" class="cls-33" id="liteecho-o"/>
    <path stroke-miterlimit="10" stroke="#fff" fill="#fff" d="m250.57715,354.5022c-2.49,0.24 -3.75,2.55 -4,3c-0.09,0.17 -1.81,3.42 0,6c1.68,2.39 5.6,3.06 8,1c2.1,-1.8 2.13,-4.93 1,-7c-0.84,-1.54 -2.7,-3.22 -5,-3z" class="cls-35" id="liteecho-o-white"/>
    <path fill="url(#_未命名的渐变_3-3)" stroke-width="0px" d="m108.07715,274.0022c-0.71,0.63 -1.32,1.81 -1,3c0.38,1.44 1.86,1.95 2,2c0.77,0.25 1.44,0.12 2,0c4.88,-1.04 5.31,-1.31 6,-1c1.18,0.54 1.54,2.08 2,4c0.41,1.72 0.73,3.08 0,4c-0.65,0.81 -2.11,0.89 -5,1c-1.25,0.05 -2.29,0.03 -3,0c-0.53,0.14 -1.96,0.61 -3,2c-0.4,0.54 -1.21,1.61 -1,3c0.24,1.62 1.7,2.78 3,3c0.44,0.08 0.79,0.03 1,0c4.59,-0.65 6.89,-0.98 7,-1c2.55,-0.43 3.84,-0.64 4.45,-0.34c1.26,0.62 1.41,1.86 2.55,5.34c0,0 1.48,4.5 4,10c0.8,1.75 1.53,3.13 2,4c0.16,0.13 2.42,1.9 5,1c0.16,-0.06 2.44,-0.88 3,-3c0.21,-0.78 0.1,-1.42 0,-2c-0.27,-1.54 -0.96,-2.26 -2,-4c-0.12,-0.21 0.03,0.04 -2,-4c-0.67,-1.33 -1.32,-2.67 -2,-4c-1.91,-3.76 -2.3,-4.3 -2,-5c0.2,-0.46 0.49,-0.53 4,-2c1.13,-0.48 2.45,-1.03 4,-2c1.13,-0.71 1.71,-1.21 2,-2c0.06,-0.17 0.35,-1.03 0,-2c-0.48,-1.32 -1.88,-2.03 -3,-2c-0.31,0 -0.54,0.07 -0.66,0.11c-2.2,0.63 -4.77,1.67 -5.34,1.89c-2.21,0.88 -3.31,1.31 -4,1c-0.42,-0.19 -0.77,-0.54 -2,-4c-1.21,-3.42 -1.11,-3.77 -1,-4c0.42,-0.85 1.37,-0.79 6,-2c2.46,-0.64 3.57,-1.02 4,-2c0.3,-0.68 0.14,-1.39 0,-2c-0.09,-0.4 -0.54,-2.17 -2,-3c-1.17,-0.66 -2.4,-0.38 -4,0c-3.65,0.88 -4.88,2.55 -6,2c-0.55,-0.27 -1.15,-1.13 -1,-4c-0.42,-2 -0.76,-3 -1,-3l0,0c-0.76,-1.48 -2.4,-2.29 -4,-2c-1.51,0.27 -2.7,1.47 -3,3c-0.17,2.45 0.41,4.01 1,5c0.57,0.95 1.14,1.36 1,2c-0.24,1.14 -2.45,1.64 -4,2c-2.38,0.55 -3.11,0.2 -4,1z" class="cls-13" id="lite-jp-2"/>
    <path fill="url(#_未命名的渐变_5)" stroke-width="0px" d="m153.07715,286.0022c-0.46,1.12 -0.62,2.69 0,4c0.19,0.41 0.79,1.49 2,2c1.22,0.51 2.43,0.16 3,0c5,-1.43 7.51,-2.15 8,-2c4.42,1.34 3.64,20.08 7,22c2.14,1.22 4,1 4,1c1.43,-0.17 3.03,-0.97 3.02,-1c0,0 0,0 -0.02,0c0.27,-0.2 0.65,-0.52 1,-1c1.53,-2.12 0.85,-5.32 -1,-10c-3.3,-8.33 -6.24,-11.07 -5,-13c0.71,-1.1 1.84,-0.46 5.57,-2.36c2.51,-1.27 4.06,-2.06 4.43,-3.64c0.46,-1.98 -1.11,-4.46 -3,-5c-1.01,-0.29 -2.23,0.21 -4.65,1.22c-3.32,1.39 -3.58,2.02 -4.35,1.78c-2.25,-0.7 -0.9,-6.34 -4,-8c-1.22,-0.65 -2.84,-0.54 -4,0c-0.31,0.14 -1.56,0.73 -2,2c-0.24,0.7 -0.14,1.29 0,2c0.51,2.66 2.08,3.57 2,5.99c0,0 0,0 0,0c0.01,0 0.02,0 0.02,0c0.01,0.1 -10.37,-0.01 -12.02,4l0,0.01z" class="cls-5" id="yuki-jp-1"/>
    <path fill="url(#_未命名的渐变_69)" stroke-width="0px" d="m230.07715,276.0022c-0.23,-0.2 -0.95,-0.74 -2,-1c-0.58,-0.14 -1.39,-0.34 -2,0c-0.79,0.44 -0.86,1.6 -1,3c0,0 -0.62,6.23 -2,9c-0.43,0.86 -0.97,1.66 -0.97,1.66c-0.12,0.18 -0.24,0.35 -0.35,0.5c-0.2,0.27 -0.42,0.55 -0.68,0.84c-1.47,1.68 -5.93,4.2 -5.93,4.2c-3.23,1.82 -3.66,2.04 -4.07,2.8c-0.61,1.13 -0.9,2.9 0,4c0.8,0.97 2.17,0.99 3,1c0.7,0 3.05,-0.07 7.17,-3.17c1.64,-1.24 3.78,-2.89 5.83,-5.83c3.15,-4.53 3.72,-8.76 4,-11c0.52,-4.2 -0.4,-5.48 -1,-6z" class="cls-31" id="yuki-jp-2-3"/>
    <path fill="url(#_未命名的渐变_67)" stroke-width="0px" d="m167.88715,359.1822c-1.13,0.52 -1.6,0.87 -1.74,1.41c-0.25,0.96 0.69,2.15 1.62,2.72c2.35,1.44 5.96,-0.31 7.81,-1.71c1.14,-0.86 3.66,-2.76 3.81,-5.96c0.17,-3.63 -2.85,-5.97 -3.45,-6.41c-3.13,-2.29 -6.78,-1.55 -8.46,-1.22c-3.41,0.68 -5.55,2.66 -6.41,3.45c-0.83,0.76 -2.15,2.02 -3.08,4.1c-1.85,4.16 -0.53,8.09 -0.22,8.94c1.05,2.88 2.91,4.54 3.46,5c0.5,0.42 2.09,1.69 4.42,2.34c1.32,0.37 2.61,0.46 3.57,0.53c1.13,0.08 1.96,0.06 2.24,0.05c1.11,-0.04 2.04,-0.06 3.14,-0.37c1.14,-0.32 1.92,-0.79 2.71,-1.28c0.29,-0.18 1.58,-0.98 3.19,-2.61c2.48,-2.49 3.07,-4.25 3.25,-4.84c0.2,-0.68 0.24,-1.11 0.07,-1.51c-0.43,-1.07 -2.08,-1.58 -3.36,-1.31c-0.51,0.11 -0.88,0.32 -1.13,0.48c-1.71,1.09 -2.2,2.45 -3.11,3.52c-1.84,2.18 -5.11,2.86 -7.32,2.49c-1.39,-0.23 -2.59,-0.92 -2.66,-0.96c-0.4,-0.23 -1.08,-0.67 -1.76,-1.38c-0.56,-0.59 -2.08,-2.19 -2.13,-4.52c-0.04,-2.02 1.04,-3.46 1.44,-3.99c1.59,-2.11 4.14,-3.1 6.33,-2.98c0.79,0.04 1.86,0.12 2.66,0.96c0.63,0.67 1.18,1.91 0.74,2.79c-0.57,1.15 -2.28,0.69 -5.65,2.26l0.02,0.01z" class="cls-14" id="liteecho-e2"/>
   </g>
   <circle id="svg_6" fill="url(#_未命名的渐变_6)" stroke-width="0px" r="4" cy="301.0022" cx="162.07715" class="cls-23"/>
   <ellipse id="svg_7" fill="url(#_未命名的渐变_7)" stroke-width="0px" ry="2.5" rx="2.51" cy="270.5022" cx="183.56715" class="cls-11"/>
   <ellipse id="svg_8" fill="url(#_未命名的渐变_7-2)" stroke-width="0px" ry="2.5" rx="2.51" cy="273.5022" cx="176.56715" class="cls-26"/>
   <circle id="svg_9" fill="url(#_未命名的渐变_7-3)" stroke-width="0px" r="4" cy="294.3922" cx="185.05715" class="cls-10"/>
   <circle id="svg_10" stroke-width="0px" fill="url(#_未命名的渐变_8)" r="4" cy="281.2622" cx="209.49715" class="cls-1"/>
   <circle id="svg_11" fill="url(#_未命名的渐变_55)" stroke-width="0px" r="4" cy="275.2622" cx="217.49715" class="cls-6"/>
  </g>
 </g>
</svg>