<?xml version="1.0" encoding="UTF-8"?>
<svg xmlns="http://www.w3.org/2000/svg" xmlns:xlink="http://www.w3.org/1999/xlink" viewBox="0 0 1366 768">
  <defs>
    <style>
      .cls-1 {
        fill: url(#_未命名的渐变_8);
      }

      .cls-1, .cls-2, .cls-3, .cls-4, .cls-5, .cls-6, .cls-7, .cls-8, .cls-9, .cls-10, .cls-11, .cls-12, .cls-13, .cls-14, .cls-15, .cls-16, .cls-17, .cls-18, .cls-19, .cls-20, .cls-21, .cls-22, .cls-23, .cls-24, .cls-25, .cls-26, .cls-27, .cls-28, .cls-29, .cls-30, .cls-31, .cls-32, .cls-33, .cls-34 {
        stroke-width: 0px;
      }

      .cls-2 {
        fill: url(#_未命名的渐变_9-3);
      }

      .cls-3 {
        fill: url(#_未命名的渐变_11);
      }

      .cls-4 {
        fill: url(#_未命名的渐变_11-4);
      }

      .cls-5 {
        fill: url(#_未命名的渐变_5);
      }

      .cls-6 {
        fill: url(#_未命名的渐变_55);
      }

      .cls-7 {
        fill: url(#_未命名的渐变_11-5);
      }

      .cls-8 {
        fill: url(#_未命名的渐变_65);
      }

      .cls-9 {
        fill: url(#_未命名的渐变_3-2);
      }

      .cls-10 {
        fill: url(#_未命名的渐变_7-3);
      }

      .cls-11 {
        fill: url(#_未命名的渐变_7);
      }

      .cls-12 {
        fill: url(#_未命名的渐变_58);
      }

      .cls-13 {
        fill: url(#_未命名的渐变_3-3);
      }

      .cls-14 {
        fill: url(#_未命名的渐变_67);
      }

      .cls-15 {
        fill: url(#_未命名的渐变_11-2);
      }

      .cls-16 {
        fill: url(#_未命名的渐变_72);
      }

      .cls-17 {
        fill: url(#_未命名的渐变_71);
      }

      .cls-18, .cls-35 {
        fill: #fff;
      }

      .cls-19 {
        fill: url(#_未命名的渐变_4);
      }

      .cls-20 {
        fill: url(#_未命名的渐变_3);
      }

      .cls-21 {
        fill: url(#_未命名的渐变_240);
      }

      .cls-22 {
        fill: url(#_未命名的渐变_9-2);
      }

      .cls-23 {
        fill: url(#_未命名的渐变_6);
      }

      .cls-24 {
        fill: url(#_未命名的渐变_9-4);
      }

      .cls-25 {
        fill: url(#_未命名的渐变_66);
      }

      .cls-26 {
        fill: url(#_未命名的渐变_7-2);
      }

      .cls-35 {
        stroke: #fff;
        stroke-miterlimit: 10;
      }

      .cls-27 {
        fill: url(#_未命名的渐变_9);
      }

      .cls-28 {
        fill: url(#_未命名的渐变_9-5);
      }

      .cls-29 {
        fill: url(#_未命名的渐变_68);
      }

      .cls-30 {
        fill: url(#_未命名的渐变_11-3);
      }

      .cls-31 {
        fill: url(#_未命名的渐变_69);
      }

      .cls-32 {
        fill: #9cf;
      }

      .cls-33 {
        fill: url(#_未命名的渐变_58-2);
      }

      .cls-34 {
        fill: url(#_未命名的渐变_4-2);
      }
    </style>
    <linearGradient id="_未命名的渐变_11" data-name="未命名的渐变 11" x1="445.89" y1="235.02" x2="528.25" y2="235.02" gradientUnits="userSpaceOnUse">
      <stop offset="0" stop-color="#73fff1"/>
      <stop offset="1" stop-color="#5cefff"/>
    </linearGradient>
    <linearGradient id="_未命名的渐变_11-2" data-name="未命名的渐变 11" x1="549.98" y1="292.99" x2="584.05" y2="292.99" xlink:href="#_未命名的渐变_11"/>
    <linearGradient id="_未命名的渐变_11-3" data-name="未命名的渐变 11" x1="553" y1="212" x2="585" y2="212" xlink:href="#_未命名的渐变_11"/>
    <linearGradient id="_未命名的渐变_11-4" data-name="未命名的渐变 11" x1="609.82" y1="260.3" x2="698.34" y2="260.3" xlink:href="#_未命名的渐变_11"/>
    <linearGradient id="_未命名的渐变_11-5" data-name="未命名的渐变 11" x1="702.75" y1="282.24" x2="784.94" y2="282.24" xlink:href="#_未命名的渐变_11"/>
    <linearGradient id="_未命名的渐变_240" data-name="未命名的渐变 240" x1="835" y1="294" x2="960" y2="294" gradientUnits="userSpaceOnUse">
      <stop offset="0" stop-color="#eadeff"/>
      <stop offset=".28" stop-color="#e0efff"/>
      <stop offset=".43" stop-color="#d9ecff"/>
      <stop offset=".59" stop-color="#aedbff"/>
      <stop offset="1" stop-color="#00d7ff"/>
    </linearGradient>
    <linearGradient id="_未命名的渐变_9" data-name="未命名的渐变 9" x1="664.92" y1="424.34" x2="766.76" y2="424.34" gradientUnits="userSpaceOnUse">
      <stop offset="0" stop-color="#2ebbff"/>
      <stop offset="1" stop-color="#006bff"/>
    </linearGradient>
    <linearGradient id="_未命名的渐变_9-2" data-name="未命名的渐变 9" x1="761.74" y1="467.72" x2="842.05" y2="467.72" xlink:href="#_未命名的渐变_9"/>
    <linearGradient id="_未命名的渐变_9-3" data-name="未命名的渐变 9" x1="951.96" y1="394" x2="977.04" y2="394" xlink:href="#_未命名的渐变_9"/>
    <linearGradient id="_未命名的渐变_9-4" data-name="未命名的渐变 9" x1="952.19" y1="456.86" x2="977.56" y2="456.86" xlink:href="#_未命名的渐变_9"/>
    <linearGradient id="_未命名的渐变_9-5" data-name="未命名的渐变 9" x1="848.96" y1="437.15" x2="934.09" y2="437.15" xlink:href="#_未命名的渐变_9"/>
    <linearGradient id="_未命名的渐变_4" data-name="未命名的渐变 4" x1="418.01" y1="402.81" x2="470.25" y2="402.81" gradientUnits="userSpaceOnUse">
      <stop offset="0" stop-color="#6445ff"/>
      <stop offset="1" stop-color="#5c86ff"/>
    </linearGradient>
    <linearGradient id="_未命名的渐变_4-2" data-name="未命名的渐变 4" x1="445.81" y1="464.45" x2="466.06" y2="464.45" xlink:href="#_未命名的渐变_4"/>
    <linearGradient id="_未命名的渐变_72" data-name="未命名的渐变 72" x1="634.1" y1="393.61" x2="649.62" y2="390.81" gradientTransform="translate(-320.36 273.4) rotate(-11.09) scale(1.44 .77)" gradientUnits="userSpaceOnUse">
      <stop offset="0" stop-color="#c4aeff"/>
      <stop offset=".43" stop-color="#ce9fff"/>
      <stop offset=".55" stop-color="#af8eff"/>
      <stop offset=".72" stop-color="#7d74ff"/>
      <stop offset=".9" stop-color="#6333ff"/>
    </linearGradient>
    <linearGradient id="_未命名的渐变_58" data-name="未命名的渐变 58" x1="620.28" y1="400.01" x2="636.02" y2="397.18" gradientUnits="userSpaceOnUse">
      <stop offset="0" stop-color="#b1ccff"/>
      <stop offset=".34" stop-color="#b8c0ff"/>
      <stop offset=".94" stop-color="#cba2ff"/>
      <stop offset="1" stop-color="#ce9fff"/>
    </linearGradient>
    <linearGradient id="_未命名的渐变_3" data-name="未命名的渐变 3" x1="469.91" y1="455" x2="478" y2="455" gradientUnits="userSpaceOnUse">
      <stop offset="0" stop-color="#5c86ff"/>
      <stop offset="1" stop-color="#64a2ff"/>
    </linearGradient>
    <linearGradient id="_未命名的渐变_3-2" data-name="未命名的渐变 3" x1="470.95" y1="475.89" x2="477.01" y2="475.89" xlink:href="#_未命名的渐变_3"/>
    <linearGradient id="_未命名的渐变_65" data-name="未命名的渐变 65" x1="485.09" y1="467.16" x2="502.74" y2="469.91" gradientTransform="translate(-109.75 153.43) rotate(-15.93)" gradientUnits="userSpaceOnUse">
      <stop offset=".11" stop-color="#64a2ff"/>
      <stop offset=".28" stop-color="#62a6ff"/>
      <stop offset="1" stop-color="#5cb5ff"/>
    </linearGradient>
    <linearGradient id="_未命名的渐变_66" data-name="未命名的渐变 66" x1="506.01" y1="471.79" x2="532.2" y2="471.17" gradientTransform="translate(117.47 -103.02) rotate(12.81)" gradientUnits="userSpaceOnUse">
      <stop offset="0" stop-color="#5cb5ff"/>
      <stop offset="1" stop-color="#74e0ff"/>
    </linearGradient>
    <linearGradient id="_未命名的渐变_68" data-name="未命名的渐变 68" x1="559.81" y1="469.17" x2="583.24" y2="468.62" gradientUnits="userSpaceOnUse">
      <stop offset="0" stop-color="#9cd1ff"/>
      <stop offset="1" stop-color="#bae0ff"/>
    </linearGradient>
    <linearGradient id="_未命名的渐变_71" data-name="未命名的渐变 71" x1="584.93" y1="460.83" x2="609.05" y2="460.83" gradientUnits="userSpaceOnUse">
      <stop offset="0" stop-color="#a6d3ff"/>
      <stop offset=".7" stop-color="#b1ccff"/>
    </linearGradient>
    <linearGradient id="_未命名的渐变_58-2" data-name="未命名的渐变 58" x1="605.79" y1="473.79" x2="643.63" y2="466.98" xlink:href="#_未命名的渐变_58"/>
    <linearGradient id="_未命名的渐变_3-3" data-name="未命名的渐变 3" x1="479.91" y1="397.6" x2="514.17" y2="397.6" xlink:href="#_未命名的渐变_3"/>
    <linearGradient id="_未命名的渐变_5" data-name="未命名的渐变 5" x1="525.59" y1="402.28" x2="558.08" y2="402.28" gradientUnits="userSpaceOnUse">
      <stop offset="0" stop-color="#64a2ff"/>
      <stop offset="1" stop-color="#5cc9ff"/>
    </linearGradient>
    <linearGradient id="_未命名的渐变_69" data-name="未命名的渐变 69" x1="583.43" y1="398.41" x2="604.15" y2="398.41" gradientUnits="userSpaceOnUse">
      <stop offset="0" stop-color="#84c9ff"/>
      <stop offset=".42" stop-color="#b1ccff"/>
    </linearGradient>
    <linearGradient id="_未命名的渐变_67" data-name="未命名的渐变 67" x1="531.83" y1="464.83" x2="558.02" y2="464.22" gradientTransform="translate(-86.67 132.78) rotate(-12.37)" gradientUnits="userSpaceOnUse">
      <stop offset="0" stop-color="#74e0ff"/>
      <stop offset=".56" stop-color="#8dd6ff"/>
      <stop offset="1" stop-color="#9cd1ff"/>
    </linearGradient>
    <linearGradient id="_未命名的渐变_6" data-name="未命名的渐变 6" x1="531" y1="411" x2="539" y2="411" gradientUnits="userSpaceOnUse">
      <stop offset="0" stop-color="#64a2ff"/>
      <stop offset="1" stop-color="#5cbfff"/>
    </linearGradient>
    <linearGradient id="_未命名的渐变_7" data-name="未命名的渐变 7" x1="553.98" y1="380.5" x2="559" y2="380.5" gradientUnits="userSpaceOnUse">
      <stop offset="0" stop-color="#64ccff"/>
      <stop offset="1" stop-color="#84c9ff"/>
    </linearGradient>
    <linearGradient id="_未命名的渐变_7-2" data-name="未命名的渐变 7" x1="546.98" y1="383.5" x2="552" y2="383.5" xlink:href="#_未命名的渐变_7"/>
    <linearGradient id="_未命名的渐变_7-3" data-name="未命名的渐变 7" y1="404.39" x2="561.98" y2="404.39" xlink:href="#_未命名的渐变_7"/>
    <linearGradient id="_未命名的渐变_8" data-name="未命名的渐变 8" x1="578.42" y1="391.26" x2="586.42" y2="391.26" gradientUnits="userSpaceOnUse">
      <stop offset=".01" stop-color="#84c9ff"/>
      <stop offset="1" stop-color="#b1ccff"/>
    </linearGradient>
    <linearGradient id="_未命名的渐变_55" data-name="未命名的渐变 55" x1="623.35" y1="385.26" x2="623.75" y2="385.26" gradientUnits="userSpaceOnUse">
      <stop offset="0" stop-color="#b1c9ff"/>
      <stop offset=".42" stop-color="#b1ccff"/>
    </linearGradient>
  </defs>
  <g id="_图层_3" data-name="图层 3">
    <path class="cls-32" d="m447,485c11.04,8.56,30.35.82,33,0,14.37-4.43,15.38-15.33,26-15,10.44.33,13.16,10.98,24,10,6.48-.59,7.04-4.53,16-6,8-1.31,8.66,1.66,17,1,12.76-1.01,15.73-8.33,24-6,8.42,4.47,11.58,6.51,22,5,0,0,11.3-1.75,32-10,1.42-9.07,4.72,6.12,11.99,12,10.1,9.09,19.95-.4,31,8,10.86,8.26,13.5,26.66,13,31-1.65,4.39,6.37,10.16,6,10-4.41-.77-20.72-10.82-25-11-6.8-1.26-15.53-2.26-24-5-17.1-5.24-15.17-10.82-34-10-7.53.04-6.69-.47-12,1-2.54-.23-9.74.73-13-1-18.29-11.87-9.94,11.78-36,3-9.47,1.86-14.72.65-18.02-1.12-2.21-1.19-4.61-5.33-6.74-4.61-.57.19-.74.58-2.24,1.74-1.2.93-2.27,1.58-3,2-.91.36-1.91.7-3,1-2.93.8-5.59,1.02-7.75,1.02-.74,0-1.87-.01-3.25-.02-3.97,0-3.61.03-4,0-2.87-.21-3.75-.93-7-1-.42,0-.77,0-1,0h-6c-3,.22-5.39.65-7,1-1.72.37-3.36.82-10,3-3.07,1.01-4.59,1.59-6,2-1.81.53-5.13,1.49-9,2-5.07.67-9,.3-12,0-6.54-.65-11.56-2.18-14-3-4.6-1.55-26.12-13.37-20-10,0,0,0,0,0,0-.03-.02-20.88-13.37-28-32-1.09-2.85-2-6-2-6-.52-1.8-1.44-5.03-2-9-.44-3.12-1.34-9.53,0-10,1.69-.59,6.23,8.51,7.27,10.48,5.15,9.76,18.12,22.54,52.73,35.52Z"/>
    <path class="cls-32" d="m633,394c-13.63,7.43-2.93,57.29,2,57,1.82-.11,1.13-6.97,8-16,3-3.94,3.81-3.37,5-6,.88-3.8,2.06-11.66-2-19-.61-1.11-1.29-2.11-2-3-.31-.36-.8-1.04-1-2-.06-.32-.19-.91,0-1,.26-.13.82.87,2,2,.84.81,1.71,1.61,3,2,1.06.32,1.94.17,3,0,1.38-.23,2.37-.69,3-1,1.31-.64,2.25-1.09,3-2,1.84-2.22,1.14-5.41,1-6-.33-1.36-.69-1.29-2-4-.87-1.8-.57-1.55-2-5-.49-1.19-1-2.79-2-6-.12-.39-.37-1.22,0-2,0,0,.29-.6,1-1,1.98-1.11,11.6.55,15,1,2.66.35,13.92,1.61,15.83,2.95.42.3.8.64,1.17,1.05,2.43,2.73.93,4.31,3,9,3.83,8.69,13.16,12.57,19,15,5.09,2.12,8.54,2.5,13,3,6.22.69,7.53-.22,8-1,.74-1.23-.27-2.7-1-5-1.53-4.78-.3-8.09,0-12,.51-6.64-1.77-13.74-4-17-9.26-13.54-41.29,4.77-71-2-1.28-.29-9.89-2.3-12,1-1.87,2.94,2.99,7.55,1,12-1.49,3.33-5.5,3.63-8,5Z"/>
    <path class="cls-32" d="m683,228c-22.42,19.49,74.7,203.11,32,245-9.08,8.91-26.9,13.94-28,28-.65,8.33,4.78,18.3,13,23,13.88,7.94,28.83,2.05,33-1,2.68-1.96,4-4,4-4,1.44-2.22,1.56-3.91,3-8,.76-2.17,1.5-3.9,2-5,.43-1.13.95-2.86,1-5,.04-1.88-.32-2.29-.25-4.13.04-1.01.22-5.22,2.25-5.87.27-.09,1.3-.35,3,1-.17-.41-.33-.87-.21-.95.24-.16,1.16,1.42,2.21,1.95,2.87,1.44,7.56-.07,8-2-10.79-5.85-14.4-6.84-15-6-.79,1.11,3.49,5.56,3,6-.37.33-3.05-1.93-3-2,.05-.07,3.08,1.97,4,3,.08.09.44.51,1,1,.23.2.43.36.55.46.1.12.26.31.45.54,2.9,3.62,4.2,7.01,4.62,8.05.92,2.28,2.67,5.77,6.38,10.95,15.05,16.54,34.83,19.18,54,9,16.33,3.81,7.85,10.54,33,5,25.9-4.5,50.39,1.98,49-25-1.26-10.66-5.86-19.02,0-10,8.68,14.17,21.69,39.51,43,27,6.44-4.99,5.9-9.29,8-16,1.22-1.48,4.53-4.38,6-4,.01.08.16,1-.41,1.5-.6.53-1.8.43-2.59-.5,2.97,10.52,12.31,17.02,21,16,7.93-.94,13.74-10.13,14.27-11.06.54-.96.98-1.97.98-1.97s.41-.95.75-1.97c1.19-3.64,1.46-7.4,1.46-7.4.88-11.86.98-15.27.98-15.27.35-11.02.5-9.78.67-17.66.19-8.34-.04-7.03.13-13.62,0,0,.55-21.79-3.25-26.05-.48-.54-1-1-1-1-1.02-.91-1.79-1.28-3-2,0,0-1-.67-3-2-1-.67-2.08-1.22-3-2-1.25-1.06-1.85-1.94-3-2-.39-.02-.52.07-1,0-1.2-.18-1.99-1.02-2-1-.02.03.5.41,3,2,.1-.62,1.27-2.67,2-3,5.54-4.98,5.58-5.38,8-10,6.12-15.03-2.92-19.21-14-26-1.23-1.16-1.87-.9-3-1-.59-2.25-2.17-3.18-3-6-1.01-2.71-2.29-10.67-2-12,.57-5.41,2.39-8.84,4-11,2.1-2.82,3.85-3.49,6-7,1.22-2,2.84-4.65,3-8,.25-5.38-3.39-9.63-8-15-2.47-2.87-5.06-5.17-6-6-2.42-2.13-4.22-3.42-5-4-5.14-3.8-8.31-10.94-9.7-14.15-5.32-12.26-7.9-23.86-8.3-32.85-1.17-26.5-38.54-51.77-63-35-7.04,5.65-2.81,10.14-11,18-10.42,10-22.57,7.8-34,13-5.71,3.43-10.18.22-16-2-9.95-3.09-18.5-13.48-24-22-1.52-1.57-3.98-3.73-7.79-5.64-30.14-4.8-47.97-7.45-51.21-7.36-.78.02-4.27.18-7.57-1.74-7.85-9.54-30.21,6.06-40.43,13.74Z"/>
    <path class="cls-32" d="m667,174c-4.66.36-8.11,1.64-10.79,3.57-13.35,9.62-7.67,24.47-21.35,37.56-3.88,3.71-4.86,2.87-33.86,12.87-.06.02-2.46.85-4,0-.23-.13-.75-.41-1-1-.23-.54-.15-1.16-.12-1.33.02-.16.09-.51.12-.67h0c1.24-1.71,8.11-11.55,4.97-21.02-3.76-11.34-20.93-19.28-39.97-12.98-12.11,2.27-15.97.27-17.33-1.85-1.94-3.02.84-6.86,5.33-19.16,3.86-10.58,5.89-16.13,6-22,.1-5.49-1.43-13.73-10-24-23.21-14.8-47-13.43-56-2-1.46,1.85-5.64,7.92-4,20-3.3,4.02-9.31,1.14-20,4-10.63,1.96-20.69,9.46-13,23,5.63,9.91,94.53,145.36,192.09,115.49,50.17-15.36,72.52-65.2,72.91-66.49.03-.1.51-1.68,0-2-.15-.1-.3-.03-1,0h-3c-1.55,0-3.44-.77-4-1-.5-.2-1.8-.75-5-3-1.04-.73-2.42-1.73-4-3-3.1-.72-4.4-1.96-5-3-.3-.52-.38-.9-1-2-1.21-2.14-1.61-1.92-2-3-.34-.93-.04-1.09,0-5,0-.35,0-.06,0-2,0-3.6.02-3.67,0-4-.12-1.85-.9-3.16-2-5-2.63-4.41-6.25-6.57-7-7-1.67-.96-2.99-1.38-5-2-2.56-.79-6.28-1.69-11-2Z"/>
  </g>
  <g id="_背景" data-name="背景">
    <path class="cls-18" d="m572,182c-16.42-3.08-26.21,8.1-31,4-7.63-6.54,18.33-33.97,9-55-6.88-15.51-30.12-21.13-45-21-3.33.03-16.49.44-31,9-30.76,18.15-37.62,55.27-56,109-20.03,58.55-43.71,77.3-45,119-.4,13.04.88,31.37,1,33,2.91,40.64,9.7,47.97,12,64,.27,1.85.98,7.34,5,12,.83.96,1.59,1.64,2.01,2,.47.48,1.15,1.18,1.99,2,10.84,10.63,27.33,20.18,27.33,20.18,17.89,10.12,26.84,15.18,35.66,13.82,3.19-.49,6.88-1.68,16.62-3.27,3.46-.56,6.46-.79,12.39-1.73,3.95-.63,7.36-.89,10-1,3.64-.15,6.36-.03,7,0,4.66.22,8.01.84,9,1,3.81.61,10.14.32,21-4,3.96.13,4.67,2.49,9,4,4.59,1.6,5.73-.37,15,0,16.7,2.72,12.4-.95,25-4,5.48-.56,5.78,1.97,14,3,9.86,2.45,36.35-8.51,48,1,6.44,5.27,9.1,4.24,16,6,7.05,3.78,15.85,4.35,23,8,18.2,11.17,34.14,20.96,51,2,5.59-6.98,3.83-12.43,8-14,7.13-2.81,31.59,30.21,58,23,15.36-6.57,13.31-4.51,28,1,5.68,1.04,23.32-3.84,33-4,12.6-.87,15.51.92,21-2,11.5-6.32,8.35-12.82,9-21,6.52,3,17.82,31.94,43,18,6.28-4.14,7.41-10.27,11-10,3.81.29,3.43,7.28,9,11,7.22,4.82,20.84,1.79,26-6,1.88-2.84,1.95-5.28,2-16,.06-12.86,2.5-34.29,1-57-.27-4.14-.62-6.12-2-8-1.81-2.47-4.68-3.81-7.73-8.57-.11-.18-.21-.33-.27-.43,0-.08-.02-.19-.02-.33.03-1.6,1.77-2.75,2.36-3.17,1.19-.85,2.8-2.4,4.66-5.5,10.77-33.99-34.41-21.61-20-59,3.12-6.89,6.55-6.37,8-12,2.32-9.04-4.5-18.26-8-23-5.99-8.1-8.37-6.45-17-17-2.93-3.58-6.84-8.36-9.5-15.5-2.32-6.24-2.48-11.05-2.5-12.5,0-.42,0-.77,0-1,.13-4.73-.28-14.34-6-24-8.66-14.64-25.27-22.26-40-22-22.75.41-39.01,19.59-41,22-4.52,5.48-5.53,9.19-11,12-8.17,4.19-19.82,3.24-29-1-1.04-.48-1.78-.88-2-1-13.03-7.1-12.62-18.04-23-25-.78-.52-2.86-1.85-9.5-3.93-18.42-5.77-40.67-7.51-55.5-8.07-1.93.07-4.76-.05-8-1-3.67-1.08-6.36-2.77-8-4-5.34-3.78-6.82-2.84-9-5-3.59-3.56.14-10.39-3-17-2.84-5.97-10.15-7.96-14-9-2.47-.67-11.2-2.68-20,2-1.88,1-6.08,3.3-9,8-2.37,3.82-1.56,5.46-4,14-2.08,7.28-3.18,10.97-6,13-1.17.85-5.1,3.27-13,1-3.07-.18-7.45,0-12,2-8.86,3.88-12,11.82-14,11-2.79-1.15,5.52-15.64,0-28-5.58-12.5-22.22-15.85-23-16Z"/>
    <g id="_主体" data-name="主体">
      <path id="lite-l" class="cls-3" d="m516,141c.03-1.1-.07-2.97-1-5-.89-1.93-2.11-3.1-2.75-3.7-.4-.38-1.57-1.42-3.37-2.29-1.11-.53-2.12-.83-2.88-1.01-.48,0-1.16,0-1.98.04-1.4.09-4.59.32-7.8,1.81-3.86,1.79-6.04,4.59-7.21,6.15-1.03,1.36-.93,1.77-4,8-1.08,2.19-1.79,3.57-2,4-5.9,11.79-12,35-12,35-7.65,29.08-7.7,25.76-12,44-2.8,11.87-4.71,21.49-6,28-.61,3.07-2.21,11.25-4,22,0,0-1.57,9.87-3,30-.1,1.34-.46,7.05,1,14,.85,4.05,3,8,3,8h0c2.28,2.98,4.52,4.83,5.99,5.89,11.06,8,23.32,4.35,57.01,4.11,3.06-.02,5.53-.01,7,0,1.02-.28,2.51-.84,4-2,.52-.41,1.27-1.06,2-2,.45-.58,1.59-1.91,2-4,.21-1.08.43-2.87,0-5-.36-1.17-.7-2.18-1-3-.3-.83-.53-1.39-1-2-.36-.46-.73-.79-1-1-.24-.23-.76-.76-1-1-1.73-1.73-1.87-1.87-2-2-1.25-1.2-2.82-1.65-4-2-5.84-1.71-23-2-23-2-4.12-.07-10.14-.62-17.53-2.99,1.73-17.19,5.56-49.39,13.31-81.46,4.95-20.51,4.35-18.09,8.22-30.55,5.85-18.81,8.77-28.22,11-34,0,0,3.24-8.41,4.63-15.69.44-2.32.84-4.8.84-4.8.18-1.17.35-2.34.53-3.5Z"/>
      <path id="lite-i-1" class="cls-15" d="m569,240c4.11.31,6.91,2.96,8,4,6.83,6.48,6.93,17.68,7,26,0,.06,0,.03,0,7,0,14.32,0,21.48,0,22,.04,13.27.66,35.34-4,42-1.29,1.84-3,3-3,3-2.97,2.01-6.17,1.99-8,2-1.45,0-7.74-.12-13-5-6.34-5.87-6.06-13.87-6-15,0-.07,0-9.93,0-10,0-38.04,0-37.85,0-38-.02-1.29-.01-3.53,0-8,.03-9.9.15-12.06,1-15,1.28-4.42,3.15-6.95,4-8,1.1-1.36,2.19-2.34,3-3,.7-.58,1.7-1.32,3-2,.98-.52,4.28-2.28,8-2Z"/>
      <path id="lite-i-1-1" class="cls-30" d="m566.78,196.07c8.85-.96,18.71,7.52,18.2,17.09-.5,9.28-10.62,16.63-19.33,14.46-6.93-1.73-13.7-9.65-12.51-18.4,1.06-7.79,7.93-12.52,13.65-13.14Z"/>
      <path id="lite-t" class="cls-4" d="m643,219c-5.46,4.9-13.26-2.45-24,3-1.76.89-7.94,4.02-9,10-.72,4.08.94,7.61,1.38,8.43.48.92,2.17,4.11,5.62,5.57,1.09.46,1.2.26,6,1,5.06.78,4.17.82,6,1,2.02.19,4,.68,6,1,.54.09,1.55.25,2,1,.42.71.13,1.6,0,2-.61,1.93-.44,4.05-1,6-1.01,3.51-.87,8.39-1,13-.29,10.62-1.82,12.94-2,20-.11,4.19-.42,18.97,9,31,1.49,1.9,10.06,12.84,21,12,1.28-.1,5.89-.45,9-4,4.48-5.11,2.13-12.61,2-13-1.5-4.54-4.19-4.73-8-10-4-5.53-5.15-11-6-15-1.67-7.89-.83-14.05,0-20,1.22-8.76,3.02-10.14,4-16,.13-.81.46-2.94,2-5,0,0,.85-1.13,2-2,2.17-1.64,8.68-.49,12.72-.42,3.25.06,5.06.09,7.28-.58,1.17-.35,8.31-2.66,10-9,1.37-5.14-1.51-11.55-6-14-3.8-2.07-12.48-2.26-15-3-1.03-.3-1.9-.93-2-1-.47-.34-.82-.6-1-1-.56-1.23.89-2.87,1-3,.54-.96,1.27-2.32,2-4,1.51-3.46,2.99-6.85,3-11,0-1.91.01-6.19-3-10-3.3-4.17-8.02-4.99-9.42-5.24-.92-.16-6.37-1-11.58,2.24-1.61,1-4.15,3-7,9-5.75,12.08-1.75,17.18-6,21Z"/>
      <path id="lite-e" class="cls-7" d="m735,276c-.58.39-5.22,3.65-5,8,.19,3.92,4.21,6.49,5,7,5.42,3.48,9.31.51,25-1,10.15-.98,16.08-.47,21-5,1.89-1.74,2.72-3.39,3-4,2.32-5.01-.29-10.09-1-14-1.83-10.01-12.11-17.03-15-19-1.39-.95-8.43-5.63-19-7-4.47-.58-13.46-1.75-23,3-8.94,4.45-13.31,11.6-16,16-5.84,9.56-6.79,18.48-7,21-.4,4.87-1.09,14.86,5,25,4.96,8.26,11.87,12.39,15,14,8.24,4.25,15.6,4.12,23,4,9.99-.17,16.58-2.61,23-5,2-.74,5.17-2.02,8-5,1.68-1.77,4.08-4.29,4-8-.07-3.36-2.16-6.53-5-8-2.95-1.53-5.9-.81-9,0-6.07,1.58-6.81,4.01-12,6-6.49,2.49-12.52,1.46-15,1-3.77-.69-9.81-1.81-14-7-3.24-4.01-3.72-8.41-4-11-.26-2.43-1.1-10.07,4-17,.43-.59,7.21-9.48,18-9,1.43.06,9.65.59,14,7,1.16,1.71,2.94,4.33,2,6-2.22,3.93-15.76-4.29-25,2Z"/>
      <path id="logo-snow" class="cls-21" d="m875,272l13.33,22,9.67-15-8-20,4-6,6,2,9,13,7-11,9,1,3,7-11,13,17,2,4,8-5,4-22-4-13.5,16.8,27.5,5.2,11-14,7,1,3,7-9,11,19,3,4,7-4,5-18-3,7,14-4,4-8-1-10-20-40-8-2-2-20-37-23-4-3-7,4-5,16,3-9-15,4-6,7,1,9,16,9-10,7,2,3,6-10,14Z"/>
      <path id="yuki-y" class="cls-27" d="m717,426c-18.61-18.39-62.05-50.01-50-71,2.85-4.5,7.34-9.45,17-7,15.19,5.99,14.64,39.18,45,55,8.67-18.92,10.28-33.18,10-43-.12-4.37-.74-12.15,4-16,.82-.55,5.22-3.4,10.85-2.15,3.86.85,6.25,3.17,7.15,4.15.5.6,1.28,1.58,2.09,2.87,8.99,14.33.03,32.06-11.49,69.45-4.1,13.3-6.65,21.58-9.6,33.68-5.81,23.86-8.17,40.38-20,51-11.03,9.91-22.32.03-23-9-2.89-15.02,23.13-56.98,18-68Z"/>
      <path id="yuki-u" class="cls-22" d="m776,433c-.54-.11-5.36-1.02-9,2-2.31,1.92-3.04,4.55-4,8-.74,2.66-.91,4.8-1,6-.59,8.25,0,15,0,15,1.18,13.55,1.77,20.33,3,23,1.04,2.27,4.07,8.71,11,13,6.21,3.85,12.31,3.91,21,4,.81,0,16.83.09,21-4,.22-.21,1.2-1.26,2-1,.93.3.69,2.05,2,4,0,0,.63.93,2,2,3.54,2.75,12.53,3.41,16-1,.62-.79,1.75-2.64,2-5,.07-.68.05-1.22.02-1.76-.13-2.75-.88-4.83-1.02-5.24-1.31-3.73-3.37-15.69-4-23-.58-6.71.42-5.3,0-19-.11-3.63-.12-9.19-3-15-1.36-2.75-2.63-4.09-4-5-2.95-1.96-6.82-2.22-10-1-.8.31-3.48,1.34-5,4-1.36,2.37-1.11,4.83-1,6,.66,6.98.45,14.01,1,21,.72,9.13.57,11.51-1,14-1.8,2.86-4.42,4.2-6,5-7.58,3.86-15,.82-17,0-2.54-1.04-3.49-2.11-4-3-.74-1.29-.88-2.78-1-4-.13-1.35-.05-2.34,0-3v-16c-.19-7.44-.28-11.16-2-14-.52-.85-3.02-4.98-8-6Z"/>
      <path id="yuki-i-1-1" class="cls-2" d="m964,382c-6.65.3-12.55,6.12-12,13,.53,6.56,6.7,11.28,13,11,6.65-.3,12.55-6.12,12-13-.53-6.56-6.7-11.28-13-11Z"/>
      <path id="yuki-i-1" class="cls-24" d="m964,413c-.8.03-3.41.23-6,2,0,0-1.73,1.18-3,3-3.44,4.92-2.32,14.54-2,25,.14,4.66,0,9.33,0,14,0,11.92,0,17.88,0,18-.51,8.41-1.54,11.05,0,16,.77,2.5,1.84,5.92,5,8,3.21,2.11,6.76,1.77,8.36,1.62.77-.07,5.65-.54,8.64-3.62,3.4-3.49,2.66-8.56,2-17-.09-1.11-1.18-15.43-1-28,.1-7.33-.76-14.71,0-22,.11-1.03.52-4.77-1-9-.64-1.78-1.55-4.19-4-6-2.89-2.13-6.05-2.04-7-2Z"/>
      <path id="yuki-k" class="cls-28" d="m918,409c-.26-.11-.66-.27-1.17-.44,0,0-4.46-1.53-9.91-1-4.47.44-18.59,11.34-31.93,31.43-.35-10.53-.23-21.87.56-33.9.37-5.55.85-10.92,1.44-16.1.26-1.2.52-2.94.41-5.03-.09-1.81-.25-4.96-2.27-8.04-.56-.85-2.9-4.42-7.52-5.51-5.61-1.33-10.01,2.08-10.62,2.58-3.44,2.76-4.45,6.67-5,9-3.6,15.32-3,27-3,27,.42,8.15,1.67,32.57,1,50-.22,5.66.05,11.33,0,17-.05,6.02-.13,9.05,1,13,1.45,5.07,4.08,8.75,6,11,1.19,1.11,3.93,3.36,8,4,3.99.63,7.79-.51,9.84-1.85,11.06-7.21,1.65-39.59,4.55-40.56.39-.13,1.19.88,2.61,3.4,8.89,11.22,14.99,15.39,30,29,7.7,10.13,23.45,3.59,22-8-.19-16.59-39.62-33.08-31.91-39.47,1.89-2.38,6-8.21,6.91-9.53,5.47-7.8,10.83-8.44,13-15,1.34-4.04.69-6.57.43-7.38-1.01-3.15-3.39-4.94-4.43-5.62Z"/>
      <path id="lite-jp-1" class="cls-19" d="m452,384c-1.75-1-2.61-.17-10,1-2.22.35-7.11,1.06-13,3-1.36.45-2.68.93-3,2-.49,1.65,1.56,4.27,4,5,.32.09.56.13.74.16,2.19.34,3.89-.56,5.26-1.16,1.96-.87,3.64-1.24,7-2,0,0,4.44-1,5,0,.02.04.04.07.04.07.07.18-.02.5-.04,2.93,0,.06,0,.71,0,2,0,5.01.09,5.71,0,7-.2,2.74-.3,4.11-1,5-1.25,1.58-3.23,1.52-7,2-5.62.72-4.41,1.27-10,2-7.19.94-9.49.07-11,2-1.32,1.68-1.32,4.57,0,6,1.74,1.88,5.46.88,9,0,7.35-1.82,19.55-4.84,29-6,4.81-.59,12-1.09,13-4,.57-1.65,0-3,0-3-.06-.14-.62-1.43-2-2-1.19-.49-2.36-.18-3,0-6.78,1.91-9.23,2.82-10,2-.45-.48-.17-1.39,0-2,1.77-6.29,1.22-12.36,1-14-.23-1.67-.84-6.18-4-8Z"/>
      <path id="liteecho-1" class="cls-34" d="m448,440c-1.02.34-1.72,1.18-2,2-.31.93-.06,1.78,0,2,.38,1.39.25,7.26,0,19-.12,5.74-.36,7.73,0,12,.21,2.49.58,5.11,2,8,.87,1.76,1.83,3.72,4,5,2.08,1.23,4.09,1.14,7,1,2.69-.13,6.51-.31,7-2,.37-1.27-1.18-3.23-3-4-2.78-1.18-4.84.97-7,0-2.17-.97-2.69-4.29-3-7-1.07-9.45-.9-24.04-1-30-.02-1.36-.12-5.21-2-6-.58-.25-1.37-.21-2,0Z"/>
      <path id="yuki-jp-4-1" class="cls-16" d="m636.06,390.95c-2.11.2-3.55,1.9-3.93,2.35-.57.68-.91,1.34-1.11,1.8,1.09,1.05,6.06,5.64,11.22,4.91,2.33-.33,5.1-1.81,5.34-2.63.03-.09.03-.17.03-.17,0-.29-.33-.71-1.89-1.83-1.33-.96-2.23-1.61-3.3-2.18-.69-.37-1.23-.6-1.68-.79-2.41-1.04-3.62-1.55-4.68-1.45Z"/>
      <path id="yuki-jp-4" class="cls-12" d="m621,375c.37-.49,1.34-1.8,3-2,2.33-.28,3.93,1.89,4,2,.33.46.44.81,1,3,.59,2.3.88,3.45,1,4,.33,1.56.71,3.58,1,6,.65,5.37.61,6.78,1,10,.79,6.47,1.28,10.5,3,15,.07.18,1.23,3.21,1,7-.08,1.29-.29,2.25-1,3-1,1.07-2.67,1.39-4,1-.58-.17-1.69-.65-3-3-1.53-2.75-1.78-5.26-2-7-.3-2.39-.86-5.79-2-10-1-6.33-2-12.67-3-19-.33-1.67-.67-3.33-1-5-.1-.53-.53-2.95,1-5Z"/>
      <path id="liteecho-i-1-1" class="cls-20" d="m474,451c-1.86-.04-3.59,1.27-4,3-.56,2.38,1.47,5.01,4,5,2.03-.01,4-1.72,4-4,0-2.25-1.92-3.96-4-4Z"/>
      <path id="liteecho-i-1" class="cls-9" d="m475,464c-.61-.3-1.38-.31-2,0-.14.07-.62.33-1,1-1.18,2.08-1.01,7.51-1,8,.16,5.45,0,9,0,9-.08,1.78-.22,3.7,1,5,.21.22.94,1,2,1,1.08,0,1.81-.8,2-1,1.05-1.14,1.02-2.72,1-4-.03-2.33.04-4.67,0-7-.05-3.31.17-8.95-1-11-.12-.2-.41-.71-1-1Z"/>
      <path id="liteecho-t" class="cls-8" d="m492.48,452.64c-.52.03-1.3.07-1.92.55-.25.19-.76.67-1.1,2.68-.15.92-.29,2.26-.14,3.91-1.17.01-3.52.16-5.32,1.22-.38.22-.77.51-1,1-.39.85-.08,1.91.41,2.59.74,1.01,1.99,1.19,3.59,1.41.85.12,1.57.12,2.05.1-.06.76-.12,1.85-.14,3.16-.01,1.22-.03,2.48.14,4.12.15,1.49.3,2.92.96,4.62.39,1.03.78,1.67,1,2,.25.39.74,1.08,1.48,1.76,1.12,1.05,2.67,2.5,4.52,2.24,1.2-.17,2.57-1.06,2.76-2.24.12-.76-.29-1.46-.55-1.92-.43-.76-.87-.99-1.51-1.65-.95-.97-1.44-1.93-1.78-2.61-.71-1.41-.9-2.61-1.1-3.85-.15-.97-.37-2.35-.14-4.12.09-.67.22-1.22.32-1.61.56,0,1.35-.04,2.29-.17,1.54-.21,2.32-.32,2.88-.82.8-.71,1.27-2.03.83-3.01-.13-.3-.38-.61-1-1-1.52-.94-3.22-1.02-4.36-.94.11-.49.27-1.25.41-2.2.49-3.18.14-3.81-.14-4.12-.26-.3-.59-.43-1.24-.69-.4-.16-1.18-.47-2.2-.41Z"/>
      <path id="liteecho-e" class="cls-25" d="m515.41,469.49c-1.24,0-1.82.11-2.17.53-.63.76-.29,2.24.31,3.15,1.51,2.31,5.53,2.25,7.8,1.77,1.4-.3,4.49-.94,5.98-3.77,1.7-3.21-.04-6.62-.4-7.27-1.86-3.4-5.47-4.29-7.14-4.7-3.37-.83-6.16.05-7.27.4-1.07.34-2.81.91-4.53,2.4-3.45,2.98-3.92,7.09-4,8-.27,3.05.7,5.35,1,6,.27.6,1.17,2.42,3,4,1.04.89,2.16,1.53,3,2,.99.56,1.75.89,2,1,1.02.44,1.88.81,3,1,1.17.2,2.07.1,3,0,.34-.04,1.85-.22,4-1,3.3-1.2,4.59-2.54,5-3,.47-.53.68-.9.71-1.34.06-1.15-1.21-2.31-2.48-2.62-.51-.12-.94-.08-1.23-.05-2.01.26-3.04,1.28-4.31,1.86-2.59,1.19-5.84.41-7.69-.86-1.16-.8-1.95-1.93-2-2-.26-.38-.69-1.07-1-2-.26-.77-.95-2.86,0-5,.82-1.85,2.41-2.69,3-3,2.34-1.23,5.06-1.05,7,0,.69.37,1.64.9,2,2,.29.87.26,2.23-.52,2.84-1,.8-2.36-.34-6.07-.36Z"/>
      <path id="liteecho-c" class="cls-29" d="m570,456c-1.16,0-4.12.04-7,2-1.54,1.05-2.49,2.26-3,3-1.62,2.38-1.87,4.7-2,6-.12,1.26-.36,4,1,7,2.14,4.72,6.61,6.52,8,7,1.04.36,4.93,1.64,9,0,.94-.38,2.74-1.13,4-3,.45-.66,1.99-2.94,1-5-.54-1.12-1.88-2.25-3-2-1.41.32-1.04,2.48-3,4-1.92,1.48-4.45,1.09-5,1-.54-.08-2.42-.41-4-2-2.4-2.42-2.04-5.66-2-6,.07-.51.43-3.37,3-5,2.25-1.43,5.33-1.38,7,0,.93.77.92,1.55,2,2,1.26.52,3.2.27,4-1,.72-1.15.17-2.56,0-3-.15-.38-.69-1.63-3-3-.98-.58-3.45-2.01-7-2Z"/>
      <path id="liteecho-h" class="cls-17" d="m590,439c-.92-.49-2.08-.44-3,0-1.8.87-1.99,2.91-2,3v9c0,4,.04,8,0,12-.03,3,.1,6,0,9-.1,3.04-.29,5.38,1,8,.45.91,1.42,2.89,3,3,1.63.11,2.9-1.85,3-2,1.44-2.28.03-4.1,0-9-.02-2.85,0-5.82,2-8,.37-.4,1.8-1.97,4-2,2.44-.04,3.91,1.89,4,2,.92,1.22,1,2.52,1,3-.33,1.67-.67,3.33-1,5-.41,1.12-.91,2.85-1,5-.09,2.3-.16,3.99,1,5,1.28,1.11,3.61,1.02,5,0,1.65-1.21,1.8-3.61,2-7,.08-1.27.04-2.31,0-3v-8c-.02-.84-.16-2.36-1-4-.51-1-1.73-2.93-4-4-3.65-1.72-7.65-.14-8,0-1.5.62-2.24,1.36-3,1-.71-.34-.94-1.4-1-4-.12-5.04.61-6.66,0-10-.56-3.06-1.54-3.76-2-4Z"/>
      <path id="liteecho-o" class="cls-33" d="m625,458c-4.27-.18-7.17,2.27-8,3-3.05,2.66-3.79,6-4,7-.18.88-1.21,5.84,2,10,2.08,2.69,4.82,3.62,6,4,1.29.42,4.46,1.39,8,0,2.95-1.16,4.51-3.31,5-4,1.43-2.02,1.81-3.97,2-5,.46-2.51.1-4.49,0-5-.67-3.35-2.52-5.47-3-6-.69-.76-3.46-3.8-8-4Z"/>
      <path id="liteecho-o-white" class="cls-35" d="m623.5,464.5c-2.49.24-3.75,2.55-4,3-.09.17-1.81,3.42,0,6,1.68,2.39,5.6,3.06,8,1,2.1-1.8,2.13-4.93,1-7-.84-1.54-2.7-3.22-5-3Z"/>
      <path id="lite-jp-2" class="cls-13" d="m481,384c-.71.63-1.32,1.81-1,3,.38,1.44,1.86,1.95,2,2,.77.25,1.44.12,2,0,4.88-1.04,5.31-1.31,6-1,1.18.54,1.54,2.08,2,4,.41,1.72.73,3.08,0,4-.65.81-2.11.89-5,1-1.25.05-2.29.03-3,0-.53.14-1.96.61-3,2-.4.54-1.21,1.61-1,3,.24,1.62,1.7,2.78,3,3,.44.08.79.03,1,0,4.59-.65,6.89-.98,7-1,2.55-.43,3.84-.64,4.45-.34,1.26.62,1.41,1.86,2.55,5.34,0,0,1.48,4.5,4,10,.8,1.75,1.53,3.13,2,4,.16.13,2.42,1.9,5,1,.16-.06,2.44-.88,3-3,.21-.78.1-1.42,0-2-.27-1.54-.96-2.26-2-4-.12-.21.03.04-2-4-.67-1.33-1.32-2.67-2-4-1.91-3.76-2.3-4.3-2-5,.2-.46.49-.53,4-2,1.13-.48,2.45-1.03,4-2,1.13-.71,1.71-1.21,2-2,.06-.17.35-1.03,0-2-.48-1.32-1.88-2.03-3-2-.31,0-.54.07-.66.11-2.2.63-4.77,1.67-5.34,1.89-2.21.88-3.31,1.31-4,1-.42-.19-.77-.54-2-4-1.21-3.42-1.11-3.77-1-4,.42-.85,1.37-.79,6-2,2.46-.64,3.57-1.02,4-2,.3-.68.14-1.39,0-2-.09-.4-.54-2.17-2-3-1.17-.66-2.4-.38-4,0-3.65.88-4.88,2.55-6,2-.55-.27-1.15-1.13-1-4-.42-2-.76-3-1-3h0c-.76-1.48-2.4-2.29-4-2-1.51.27-2.7,1.47-3,3-.17,2.45.41,4.01,1,5,.57.95,1.14,1.36,1,2-.24,1.14-2.45,1.64-4,2-2.38.55-3.11.2-4,1Z"/>
      <path id="yuki-jp-1" class="cls-5" d="m526,396c-.46,1.12-.62,2.69,0,4,.19.41.79,1.49,2,2,1.22.51,2.43.16,3,0,5-1.43,7.51-2.15,8-2,4.42,1.34,3.64,20.08,7,22,2.14,1.22,4,1,4,1,1.43-.17,3.03-.97,3.02-1,0,0,0,0-.02,0,.27-.2.65-.52,1-1,1.53-2.12.85-5.32-1-10-3.3-8.33-6.24-11.07-5-13,.71-1.1,1.84-.46,5.57-2.36,2.51-1.27,4.06-2.06,4.43-3.64.46-1.98-1.11-4.46-3-5-1.01-.29-2.23.21-4.65,1.22-3.32,1.39-3.58,2.02-4.35,1.78-2.25-.7-.9-6.34-4-8-1.22-.65-2.84-.54-4,0-.31.14-1.56.73-2,2-.24.7-.14,1.29,0,2,.51,2.66,2.08,3.57,2,5.99,0,0,0,0,0,0,.01,0,.02,0,.02,0,.01.1-10.37-.01-12.02,4Z"/>
      <path id="yuki-jp-2-3" class="cls-31" d="m603,386c-.23-.2-.95-.74-2-1-.58-.14-1.39-.34-2,0-.79.44-.86,1.6-1,3,0,0-.62,6.23-2,9-.43.86-.97,1.66-.97,1.66-.12.18-.24.35-.35.5-.2.27-.42.55-.68.84-1.47,1.68-5.93,4.2-5.93,4.2-3.23,1.82-3.66,2.04-4.07,2.8-.61,1.13-.9,2.9,0,4,.8.97,2.17.99,3,1,.7,0,3.05-.07,7.17-3.17,1.64-1.24,3.78-2.89,5.83-5.83,3.15-4.53,3.72-8.76,4-11,.52-4.2-.4-5.48-1-6Z"/>
      <path id="liteecho-e2" class="cls-14" d="m540.81,469.18c-1.13.52-1.6.87-1.74,1.41-.25.96.69,2.15,1.62,2.72,2.35,1.44,5.96-.31,7.81-1.71,1.14-.86,3.66-2.76,3.81-5.96.17-3.63-2.85-5.97-3.45-6.41-3.13-2.29-6.78-1.55-8.46-1.22-3.41.68-5.55,2.66-6.41,3.45-.83.76-2.15,2.02-3.08,4.1-1.85,4.16-.53,8.09-.22,8.94,1.05,2.88,2.91,4.54,3.46,5,.5.42,2.09,1.69,4.42,2.34,1.32.37,2.61.46,3.57.53,1.13.08,1.96.06,2.24.05,1.11-.04,2.04-.06,3.14-.37,1.14-.32,1.92-.79,2.71-1.28.29-.18,1.58-.98,3.19-2.61,2.48-2.49,3.07-4.25,3.25-4.84.2-.68.24-1.11.07-1.51-.43-1.07-2.08-1.58-3.36-1.31-.51.11-.88.32-1.13.48-1.71,1.09-2.2,2.45-3.11,3.52-1.84,2.18-5.11,2.86-7.32,2.49-1.39-.23-2.59-.92-2.66-.96-.4-.23-1.08-.67-1.76-1.38-.56-.59-2.08-2.19-2.13-4.52-.04-2.02,1.04-3.46,1.44-3.99,1.59-2.11,4.14-3.1,6.33-2.98.79.04,1.86.12,2.66.96.63.67,1.18,1.91.74,2.79-.57,1.15-2.28.69-5.65,2.26Z"/>
    </g>
    <circle class="cls-23" cx="535" cy="411" r="4"/>
    <ellipse class="cls-11" cx="556.49" cy="380.5" rx="2.51" ry="2.5"/>
    <ellipse class="cls-26" cx="549.49" cy="383.5" rx="2.51" ry="2.5"/>
    <circle class="cls-10" cx="557.98" cy="404.39" r="4"/>
    <circle class="cls-1" cx="582.42" cy="391.26" r="4"/>
    <circle class="cls-6" cx="590.42" cy="385.26" r="4"/>
  </g>
</svg>